<?xml version="1.0" encoding="utf-8"?>
<!-- Generator: Adobe Illustrator 16.0.0, SVG Export Plug-In . SVG Version: 6.00 Build 0)  -->
<!DOCTYPE svg PUBLIC "-//W3C//DTD SVG 1.1//EN" "http://www.w3.org/Graphics/SVG/1.1/DTD/svg11.dtd">
<svg version="1.1" id="Layer_1" xmlns="http://www.w3.org/2000/svg" xmlns:xlink="http://www.w3.org/1999/xlink" x="0px" y="0px"
	 width="80px" height="80px" viewBox="-3 -25.5 80 80" enable-background="new -3 -25.5 80 80" xml:space="preserve">
<g>
	<path fill="#FFFFFF" d="M73.57,4.679C72.88,4.199,66.749,0,64,0c-4.404,0-13.718,5.924-17.273,8.298
		C46.008,6.097,43.938,4.5,41.5,4.5h-9c-2.438,0-4.508,1.597-5.227,3.798C23.718,5.924,14.405,0,10,0C7.251,0,1.12,4.199,0.43,4.679
		C0.16,4.865,0,5.172,0,5.5v18c0,0.328,0.16,0.635,0.43,0.82C1.12,24.801,7.251,29,10,29c4.405,0,13.718-5.924,17.273-8.298
		c0.719,2.2,2.788,3.798,5.227,3.798h9c2.438,0,4.508-1.598,5.227-3.798C50.282,23.076,59.596,29,64,29
		c2.749,0,8.88-4.199,9.57-4.68C73.84,24.135,74,23.828,74,23.5v-18C74,5.172,73.84,4.865,73.57,4.679z M2,22.973V6.027
		C4.472,4.357,8.486,2,10,2c3.728,0,13.152,5.901,17,8.527v2.586L14.816,9.052c-0.525-0.177-1.09,0.108-1.266,0.632
		c-0.174,0.524,0.109,1.091,0.633,1.265L24.839,14.5l-10.655,3.553c-0.523,0.174-0.807,0.739-0.633,1.264
		C13.691,19.734,14.081,20,14.5,20c0.104,0,0.211-0.018,0.316-0.053L27,15.887v2.586C23.153,21.1,13.729,27,10,27
		C8.488,27,4.473,24.643,2,22.973z M45,19c0,1.93-1.57,3.5-3.5,3.5h-9c-1.93,0-3.5-1.57-3.5-3.5v-9c0-1.93,1.57-3.5,3.5-3.5h9
		c1.93,0,3.5,1.57,3.5,3.5V19z M72,22.973C69.527,24.643,65.514,27,64,27c-3.729,0-13.152-5.9-17-8.527v-2.586l12.184,4.062
		C59.289,19.982,59.396,20,59.5,20c0.419,0,0.809-0.266,0.949-0.684c0.174-0.524-0.109-1.092-0.633-1.266L49.161,14.5l10.655-3.552
		c0.522-0.174,0.807-0.74,0.633-1.265c-0.176-0.523-0.74-0.809-1.266-0.632L47,13.113v-2.586C50.848,7.901,60.271,2,64,2
		c1.512,0,5.527,2.357,8,4.027V22.973z"/>
</g>
</svg>
