<?xml version="1.0" encoding="utf-8"?>
<!-- Generator: Adobe Illustrator 16.0.0, SVG Export Plug-In . SVG Version: 6.00 Build 0)  -->
<!DOCTYPE svg PUBLIC "-//W3C//DTD SVG 1.1//EN" "http://www.w3.org/Graphics/SVG/1.1/DTD/svg11.dtd">
<svg version="1.1" id="Layer_1" xmlns="http://www.w3.org/2000/svg" xmlns:xlink="http://www.w3.org/1999/xlink" x="0px" y="0px"
	 width="114.178px" height="101.419px" viewBox="0 0 114.178 101.419" enable-background="new 0 0 114.178 101.419"
	 xml:space="preserve">
<g>
	<path d="M75.75,37.86h4.5c0.553,0,1-0.447,1-1v-9c0-0.553-0.447-1-1-1h-19c-0.553,0-1,0.447-1,1v4.5c0,0.553,0.447,1,1,1h13.5v3.5
		C74.75,37.413,75.197,37.86,75.75,37.86z M62.25,31.36v-2.5h17v7h-2.5v-3.5c0-0.553-0.447-1-1-1H62.25z"/>
	<path d="M39.755,46.86v-13.5h3.5c0.553,0,1-0.447,1-1v-4.5c0-0.553-0.447-1-1-1h-9c-0.553,0-1,0.447-1,1v19c0,0.553,0.447,1,1,1
		h4.5C39.308,47.86,39.755,47.413,39.755,46.86z M38.755,31.36c-0.553,0-1,0.447-1,1v13.5h-2.5v-17h7v2.5H38.755z"/>
	<path d="M54.367,85.598l-3.184,3.183c-0.391,0.391-0.391,1.023,0.002,1.414l6.363,6.364c0.391,0.391,1.023,0.391,1.414,0
		l6.364-6.364c0.391-0.391,0.391-1.023,0-1.414l-3.182-3.183c-0.392-0.391-1.023-0.391-1.414,0l-2.476,2.476l-2.475-2.476
		C55.391,85.207,54.758,85.207,54.367,85.598z M61.438,87.72l1.768,1.768l-4.95,4.95l-4.949-4.95l1.768-1.768l2.475,2.475
		c0.391,0.392,1.023,0.391,1.414,0L61.438,87.72z"/>
	<path d="M34.756,60.86h4.5c0.553,0,1-0.447,1-1s-0.447-1-1-1h-4.5c-0.553,0-1,0.447-1,1S34.203,60.86,34.756,60.86z"/>
	<path d="M44.881,60.86h4.5c0.553,0,1-0.447,1-1s-0.447-1-1-1h-4.5c-0.553,0-1,0.447-1,1S44.328,60.86,44.881,60.86z"/>
	<path d="M55.006,60.86h4.5c0.553,0,1-0.447,1-1s-0.447-1-1-1h-4.5c-0.553,0-1,0.447-1,1S54.453,60.86,55.006,60.86z"/>
	<path d="M65.131,60.86h4.5c0.553,0,1-0.447,1-1s-0.447-1-1-1h-4.5c-0.553,0-1,0.447-1,1S64.578,60.86,65.131,60.86z"/>
	<path d="M75.256,60.86h4.5c0.553,0,1-0.447,1-1s-0.447-1-1-1h-4.5c-0.553,0-1,0.447-1,1S74.703,60.86,75.256,60.86z"/>
	<path d="M31.256,64.36h4.5c0.553,0,1-0.447,1-1s-0.447-1-1-1h-4.5c-0.553,0-1,0.447-1,1S30.703,64.36,31.256,64.36z"/>
	<path d="M40.556,62.36c-0.553,0-1,0.447-1,1s0.447,1,1,1h4.5c0.553,0,1-0.447,1-1s-0.447-1-1-1H40.556z"/>
	<path d="M49.855,62.36c-0.553,0-1,0.447-1,1s0.447,1,1,1h4.5c0.553,0,1-0.447,1-1s-0.447-1-1-1H49.855z"/>
	<path d="M59.156,62.36c-0.553,0-1,0.447-1,1s0.447,1,1,1h4.5c0.553,0,1-0.447,1-1s-0.447-1-1-1H59.156z"/>
	<path d="M76.756,63.36c0,0.553,0.447,1,1,1h4.5c0.553,0,1-0.447,1-1s-0.447-1-1-1h-4.5C77.203,62.36,76.756,62.808,76.756,63.36z"
		/>
	<path d="M72.956,62.36h-4.5c-0.553,0-1,0.447-1,1s0.447,1,1,1h4.5c0.553,0,1-0.447,1-1S73.509,62.36,72.956,62.36z"/>
	<path d="M86.756,65.86h-4.5c-0.553,0-1,0.447-1,1s0.447,1,1,1h4.5c0.553,0,1-0.447,1-1S87.309,65.86,86.756,65.86z"/>
	<path d="M77.673,65.86h-4.5c-0.553,0-1,0.447-1,1s0.447,1,1,1h4.5c0.553,0,1-0.447,1-1S78.226,65.86,77.673,65.86z"/>
	<path d="M68.589,65.86h-4.5c-0.553,0-1,0.447-1,1s0.447,1,1,1h4.5c0.553,0,1-0.447,1-1S69.142,65.86,68.589,65.86z"/>
	<path d="M59.506,65.86h-4.5c-0.553,0-1,0.447-1,1s0.447,1,1,1h4.5c0.553,0,1-0.447,1-1S60.059,65.86,59.506,65.86z"/>
	<path d="M50.422,65.86h-4.5c-0.553,0-1,0.447-1,1s0.447,1,1,1h4.5c0.553,0,1-0.447,1-1S50.975,65.86,50.422,65.86z"/>
	<path d="M41.34,65.86h-4.5c-0.553,0-1,0.447-1,1s0.447,1,1,1h4.5c0.553,0,1-0.447,1-1S41.893,65.86,41.34,65.86z"/>
	<path d="M33.256,65.86h-4.5c-0.553,0-1,0.447-1,1s0.447,1,1,1h4.5c0.553,0,1-0.447,1-1S33.809,65.86,33.256,65.86z"/>
	<path fill="none" stroke="#ED1C24" stroke-width="0.3" stroke-miterlimit="10" d="M42.263,58.266"/>
	<path fill="none" stroke="#ED1C24" stroke-width="0.3" stroke-miterlimit="10" d="M46.127,62.871"/>
	<path fill="none" stroke="#ED1C24" stroke-width="0.3" stroke-miterlimit="10" d="M51.334,65.878"/>
	<path fill="none" stroke="#ED1C24" stroke-width="0.3" stroke-miterlimit="10" d="M57.255,66.922"/>
	<path fill="none" stroke="#ED1C24" stroke-width="0.3" stroke-miterlimit="10" d="M63.176,65.878"/>
	<path fill="none" stroke="#ED1C24" stroke-width="0.3" stroke-miterlimit="10" d="M68.383,62.872"/>
	<path fill="none" stroke="#ED1C24" stroke-width="0.3" stroke-miterlimit="10" d="M72.247,58.267"/>
	<path d="M74.465,51.396h-1.289c-0.52-8.345-7.455-14.98-15.929-14.98s-15.409,6.635-15.929,14.98h-1.291c-0.553,0-1,0.447-1,1
		s0.447,1,1,1h34.438c0.553,0,1-0.447,1-1S75.018,51.396,74.465,51.396z M44.689,46.293l3.155,1.822
		c0.157,0.091,0.329,0.134,0.499,0.134c0.346,0,0.682-0.179,0.867-0.5c0.275-0.479,0.112-1.09-0.366-1.366l-3.165-1.828
		c0.54-0.794,1.164-1.524,1.852-2.19l2.34,2.79c0.198,0.236,0.482,0.357,0.768,0.357c0.227,0,0.455-0.077,0.642-0.233
		c0.423-0.355,0.479-0.986,0.124-1.409l-2.338-2.787c0.771-0.56,1.599-1.044,2.478-1.439l1.25,3.432
		c0.147,0.406,0.531,0.658,0.939,0.658c0.114,0,0.229-0.02,0.343-0.061c0.519-0.189,0.785-0.763,0.597-1.282l-1.249-3.432
		c1.217-0.347,2.496-0.545,3.823-0.545c7.371,0,13.413,5.738,13.929,12.98H58.673l2.514-6.906l0.652,1.399
		c0.169,0.363,0.53,0.577,0.907,0.577c0.141,0,0.285-0.03,0.422-0.094c0.5-0.233,0.717-0.828,0.483-1.329l-1.673-3.587
		c-0.233-0.501-0.828-0.718-1.328-0.484l-3.588,1.672c-0.501,0.233-0.718,0.828-0.484,1.329c0.233,0.501,0.828,0.718,1.328,0.484
		l1.402-0.653l-2.764,7.593H43.318C43.448,49.575,43.927,47.855,44.689,46.293z"/>
	<path d="M22.299,47.761l-2.143-0.377c-0.021-0.289-0.07-0.568-0.147-0.838l1.885-1.088c0.479-0.276,0.642-0.888,0.366-1.366
		c-0.277-0.478-0.89-0.644-1.366-0.366l-1.876,1.083c-0.2-0.206-0.416-0.395-0.654-0.556l0.739-2.031
		c0.188-0.519-0.079-1.093-0.597-1.282c-0.52-0.19-1.094,0.079-1.282,0.597l-0.747,2.051c-0.142-0.015-0.279-0.043-0.425-0.043
		c-0.145,0-0.282,0.028-0.423,0.043l-0.746-2.051c-0.188-0.52-0.764-0.787-1.281-0.598c-0.52,0.189-0.787,0.763-0.598,1.282
		l0.739,2.032c-0.238,0.161-0.454,0.351-0.653,0.556l-1.878-1.084c-0.479-0.276-1.09-0.112-1.366,0.366
		c-0.275,0.478-0.112,1.09,0.366,1.366l1.886,1.089c-0.076,0.27-0.126,0.549-0.146,0.838l-2.145,0.377
		c-0.545,0.096-0.908,0.614-0.812,1.158c0.086,0.484,0.508,0.826,0.984,0.826c0.057,0,0.115-0.005,0.174-0.016l2.131-0.375
		c0.117,0.264,0.266,0.51,0.434,0.741l-1.395,1.66c-0.354,0.423-0.299,1.054,0.123,1.408c0.188,0.157,0.416,0.234,0.643,0.234
		c0.285,0,0.569-0.121,0.768-0.357l1.394-1.661c0.256,0.125,0.522,0.225,0.804,0.296v2.165c0,0.552,0.447,1,1,1l0,0
		c0.553,0,1-0.447,1-1v-2.166c0.281-0.07,0.549-0.171,0.803-0.295l1.395,1.662c0.198,0.236,0.481,0.357,0.768,0.357
		c0.227,0,0.455-0.077,0.642-0.233c0.423-0.355,0.479-0.986,0.124-1.409l-1.394-1.66c0.169-0.231,0.315-0.478,0.435-0.742
		l2.129,0.375c0.059,0.011,0.116,0.016,0.174,0.016c0.477,0,0.898-0.342,0.984-0.826C23.207,48.375,22.844,47.856,22.299,47.761z
		 M16.768,45.678c0.004,0.002,0.006,0.005,0.01,0.007c0.008,0.003,0.016,0.002,0.023,0.004c0.457,0.173,0.836,0.496,1.082,0.911
		c0.003,0.005,0.002,0.012,0.006,0.017c0.003,0.006,0.008,0.01,0.012,0.016c0.177,0.311,0.286,0.664,0.286,1.047
		c0,0.122-0.017,0.24-0.036,0.356c0,0.003-0.003,0.006-0.004,0.009c-0.001,0.007,0.002,0.014,0.001,0.021
		c-0.09,0.489-0.351,0.915-0.714,1.227c-0.005,0.004-0.012,0.005-0.017,0.009s-0.007,0.01-0.011,0.014
		c-0.369,0.307-0.838,0.498-1.354,0.498c-0.515,0-0.98-0.191-1.349-0.496c-0.006-0.005-0.008-0.011-0.014-0.016
		s-0.013-0.006-0.019-0.011c-0.362-0.312-0.621-0.735-0.711-1.225c-0.001-0.007,0.002-0.014,0.001-0.021
		c-0.001-0.003-0.004-0.006-0.004-0.009c-0.02-0.117-0.036-0.234-0.036-0.356c0-0.381,0.108-0.733,0.284-1.043
		c0.004-0.007,0.01-0.013,0.015-0.02c0.004-0.007,0.003-0.015,0.007-0.021c0.246-0.412,0.622-0.733,1.076-0.905
		c0.008-0.003,0.018-0.002,0.025-0.005c0.004-0.002,0.008-0.006,0.012-0.007c0.224-0.08,0.461-0.132,0.712-0.132
		C16.304,45.546,16.543,45.598,16.768,45.678z"/>
	<g>
		<path d="M24.688,29.74c-0.311,0-0.614-0.145-0.809-0.411l-8.635-11.85c-0.221-0.304-0.254-0.707-0.082-1.042
			c0.17-0.335,0.514-0.547,0.891-0.547h2.037l-1.781-9.79c-0.084-0.462,0.164-0.92,0.598-1.102c0.434-0.182,0.934-0.037,1.204,0.348
			l9.069,12.915c0.186,0.182,0.299,0.434,0.299,0.713c0,0.556-0.471,1.017-1.01,1c-0.003,0-0.006,0-0.01,0h-3.514l2.638,8.282
			c0.079,0.143,0.124,0.308,0.124,0.483c0,0.552-0.447,1-1,1C24.698,29.739,24.694,29.739,24.688,29.74z M18.019,17.89l3.845,5.276
			l-1.238-3.889c-0.097-0.304-0.043-0.636,0.146-0.894c0.188-0.257,0.488-0.41,0.807-0.41h2.957l-5.443-7.75l1.182,6.487
			c0.053,0.292-0.026,0.592-0.217,0.82c-0.189,0.228-0.471,0.359-0.768,0.359H18.019z"/>
	</g>
	<g>
		<path d="M103.951,58.649c-0.318,0-0.627-0.152-0.819-0.425l-9.167-13.052c-0.215-0.306-0.241-0.705-0.068-1.036
			c0.172-0.331,0.514-0.539,0.887-0.539h3.514l-2.695-8.462c-0.148-0.467,0.063-0.974,0.501-1.195
			c0.438-0.221,0.972-0.094,1.261,0.303l8.535,11.714c0.191,0.183,0.311,0.439,0.311,0.725c0,0.557-0.456,1.013-1.01,1
			c-0.003,0-0.006,0-0.01,0h-2.037l1.781,9.789c0.084,0.462-0.164,0.92-0.598,1.102C104.211,58.624,104.08,58.649,103.951,58.649z
			 M96.707,45.598l5.443,7.749l-1.182-6.486c-0.053-0.291,0.026-0.592,0.217-0.819c0.189-0.228,0.471-0.359,0.768-0.359h1.271
			l-3.845-5.276l1.238,3.889c0.097,0.304,0.043,0.636-0.146,0.893c-0.188,0.258-0.488,0.41-0.807,0.41H96.707z"/>
	</g>
	<g>
		<g>
			<path d="M56.031,7.871c-0.256,0-0.512-0.098-0.707-0.293c-0.391-0.391-0.391-1.024,0-1.415l3.189-3.188
				c0.391-0.39,1.023-0.39,1.414,0s0.391,1.024,0,1.415l-3.189,3.188C56.543,7.773,56.287,7.871,56.031,7.871z"/>
		</g>
		<g>
			<path d="M54.649,10.721c-0.256,0-0.512-0.098-0.707-0.293l-4.36-4.36c-0.391-0.391-0.391-1.023,0-1.414l4.36-4.36
				c0.391-0.391,1.023-0.391,1.414,0s0.391,1.023,0,1.414L51.703,5.36l3.653,3.653c0.391,0.391,0.391,1.023,0,1.414
				C55.161,10.623,54.905,10.721,54.649,10.721z"/>
		</g>
		<g>
			<path d="M60.863,10.721c-0.256,0-0.512-0.098-0.707-0.293c-0.391-0.39-0.391-1.023,0-1.414l3.652-3.653l-3.652-3.653
				c-0.391-0.391-0.391-1.024,0-1.414c0.391-0.391,1.023-0.391,1.414,0l4.359,4.36c0.391,0.391,0.391,1.023,0,1.414l-4.359,4.36
				C61.375,10.623,61.119,10.721,60.863,10.721z"/>
		</g>
	</g>
	<path d="M85.256,55.569V23.86c0-0.553-0.447-1-1-1h-54c-0.553,0-1,0.447-1,1v31.817l-0.164-0.185L0,81.313l0.777,0.778
		c0.023,0.021,0.041,0.046,0.066,0.065l17.791,17.792l18.811-5.406l20.268,6.823c0.104,0.035,0.211,0.053,0.318,0.053
		c0.111,0,0.223-0.019,0.33-0.056l19.001-6.64l18.181,5.226l18.635-18.635L85.256,55.569z M31.256,24.86h52v30.5h-52V24.86z
		 M83.721,57.36l8.334,12.5H22.457l8.334-12.5H83.721z M92.256,71.86v2.5h-70v-2.5H92.256z M26.049,60.868l-5.625,8.438
		c-0.109,0.164-0.168,0.357-0.168,0.555v5.5c0,0.553,0.447,1,1,1h72c0.553,0,1-0.447,1-1v-5.5c0-0.197-0.059-0.391-0.168-0.555
		l-5.24-7.861l21.264,18.928H4.072L26.049,60.868z M19.217,97.701L5.203,83.688l28.908,9.732L19.217,97.701z M58.025,99.361
		L7.562,82.372h99.082L58.025,99.361z M94.961,97.701l-14.332-4.119l28.363-9.911L94.961,97.701z"/>
</g>
</svg>
