<?xml version="1.0" encoding="utf-8"?>
<!-- Generator: Adobe Illustrator 16.0.0, SVG Export Plug-In . SVG Version: 6.00 Build 0)  -->
<!DOCTYPE svg PUBLIC "-//W3C//DTD SVG 1.1//EN" "http://www.w3.org/Graphics/SVG/1.1/DTD/svg11.dtd">
<svg version="1.1" id="Layer_1" xmlns="http://www.w3.org/2000/svg" xmlns:xlink="http://www.w3.org/1999/xlink" x="0px" y="0px"
	 width="114.178px" height="101.418px" viewBox="0 0 114.178 101.418" enable-background="new 0 0 114.178 101.418"
	 xml:space="preserve">
<g>
	<path fill="#0035CD" d="M75.751,37.859h4.5c0.553,0,1-0.447,1-1v-9c0-0.553-0.447-1-1-1h-19c-0.555,0-1,0.447-1,1v4.5
		c0,0.553,0.445,1,1,1h13.5v3.5C74.751,37.412,75.198,37.859,75.751,37.859z M62.251,31.359v-2.5h17v7h-2.5v-3.5
		c0-0.553-0.447-1-1-1H62.251z"/>
	<path fill="#0035CD" d="M39.755,46.859v-13.5h3.5c0.553,0,1-0.447,1-1v-4.5c0-0.553-0.447-1-1-1h-9c-0.553,0-1,0.447-1,1v19
		c0,0.553,0.447,1,1,1h4.5C39.308,47.859,39.755,47.412,39.755,46.859z M38.755,31.359c-0.553,0-1,0.447-1,1v13.5h-2.5v-17h7v2.5
		H38.755z"/>
	<path fill="#0035CD" d="M54.368,85.598l-3.185,3.182c-0.391,0.393-0.391,1.023,0.002,1.414l6.363,6.365
		c0.391,0.392,1.021,0.392,1.414,0l6.363-6.365c0.391-0.391,0.391-1.021,0-1.414l-3.184-3.182c-0.391-0.392-1.021-0.392-1.414,0
		l-2.475,2.475l-2.477-2.475C55.391,85.206,54.759,85.206,54.368,85.598z M61.438,87.719l1.77,1.768l-4.949,4.951l-4.95-4.951
		l1.77-1.768l2.476,2.475c0.391,0.394,1.023,0.393,1.414,0L61.438,87.719z"/>
	<path fill="#0035CD" d="M34.756,60.859h4.5c0.553,0,1-0.447,1-1s-0.447-1-1-1h-4.5c-0.553,0-1,0.447-1,1
		S34.204,60.859,34.756,60.859z"/>
	<path fill="#0035CD" d="M44.881,60.859h4.5c0.553,0,1-0.447,1-1s-0.447-1-1-1h-4.5c-0.553,0-1,0.447-1,1
		S44.329,60.859,44.881,60.859z"/>
	<path fill="#0035CD" d="M55.006,60.859h4.5c0.553,0,1-0.447,1-1s-0.447-1-1-1h-4.5c-0.553,0-1,0.447-1,1
		S54.454,60.859,55.006,60.859z"/>
	<path fill="#0035CD" d="M65.132,60.859h4.5c0.553,0,1-0.447,1-1s-0.447-1-1-1h-4.5c-0.553,0-1,0.447-1,1
		S64.579,60.859,65.132,60.859z"/>
	<path fill="#0035CD" d="M75.257,60.859h4.5c0.553,0,1-0.447,1-1s-0.447-1-1-1h-4.5c-0.553,0-1,0.447-1,1
		S74.704,60.859,75.257,60.859z"/>
	<path fill="#0035CD" d="M31.256,64.359h4.5c0.553,0,1-0.447,1-1s-0.447-1-1-1h-4.5c-0.553,0-1,0.447-1,1
		S30.704,64.359,31.256,64.359z"/>
	<path fill="#0035CD" d="M40.556,62.359c-0.553,0-1,0.447-1,1s0.447,1,1,1h4.5c0.553,0,1-0.447,1-1s-0.447-1-1-1H40.556z"/>
	<path fill="#0035CD" d="M49.857,62.359c-0.553,0-1,0.447-1,1s0.447,1,1,1h4.5c0.555,0,1-0.447,1-1s-0.445-1-1-1H49.857z"/>
	<path fill="#0035CD" d="M59.155,62.359c-0.553,0-1,0.447-1,1s0.447,1,1,1h4.504c0.553,0,1-0.447,1-1s-0.447-1-1-1H59.155z"/>
	<path fill="#0035CD" d="M76.757,63.359c0,0.553,0.447,1,1,1h4.5c0.553,0,1-0.447,1-1s-0.447-1-1-1h-4.5
		C77.204,62.359,76.757,62.807,76.757,63.359z"/>
	<path fill="#0035CD" d="M72.956,62.359h-4.5c-0.555,0-1,0.447-1,1s0.445,1,1,1h4.5c0.553,0,1-0.447,1-1
		S73.509,62.359,72.956,62.359z"/>
	<path fill="#0035CD" d="M86.757,65.859h-4.5c-0.553,0-1,0.447-1,1s0.447,1,1,1h4.5c0.553,0,1-0.447,1-1S87.31,65.859,86.757,65.859
		z"/>
	<path fill="#0035CD" d="M77.673,65.859h-4.5c-0.553,0-1,0.447-1,1s0.447,1,1,1h4.5c0.553,0,1-0.447,1-1
		S78.226,65.859,77.673,65.859z"/>
	<path fill="#0035CD" d="M68.589,65.859h-4.5c-0.553,0-1,0.447-1,1s0.447,1,1,1h4.5c0.553,0,1-0.447,1-1
		S69.142,65.859,68.589,65.859z"/>
	<path fill="#0035CD" d="M59.507,65.859h-4.5c-0.553,0-1,0.447-1,1s0.447,1,1,1h4.5c0.553,0,1-0.447,1-1S60.06,65.859,59.507,65.859
		z"/>
	<path fill="#0035CD" d="M50.423,65.859h-4.5c-0.553,0-1,0.447-1,1s0.447,1,1,1h4.5c0.553,0,1-0.447,1-1
		S50.976,65.859,50.423,65.859z"/>
	<path fill="#0035CD" d="M41.339,65.859h-4.5c-0.553,0-1,0.447-1,1s0.447,1,1,1h4.5c0.553,0,1-0.447,1-1
		S41.892,65.859,41.339,65.859z"/>
	<path fill="#0035CD" d="M33.256,65.859h-4.5c-0.553,0-1,0.447-1,1s0.447,1,1,1h4.5c0.553,0,1-0.447,1-1
		S33.809,65.859,33.256,65.859z"/>
	<path fill="#0035CD" d="M42.263,58.266"/>
	<path fill="#0035CD" d="M46.127,62.87"/>
	<path fill="#0035CD" d="M51.334,65.877"/>
	<path fill="#0035CD" d="M57.255,66.921"/>
	<path fill="#0035CD" d="M63.177,65.877"/>
	<path fill="#0035CD" d="M68.384,62.871"/>
	<path fill="#0035CD" d="M72.247,58.266"/>
	<g>
		<g>
			<path fill="#0035CD" d="M53.734,43.733c-0.406,0-0.792-0.252-0.938-0.658l-1.312-3.6c-0.188-0.519,0.078-1.093,0.6-1.282
				c0.517-0.191,1.093,0.079,1.279,0.597l1.312,3.6c0.188,0.519-0.078,1.093-0.598,1.282C53.963,43.714,53.847,43.733,53.734,43.733
				z"/>
		</g>
		<g>
			<path fill="#0035CD" d="M50.639,45.512c-0.286,0-0.569-0.122-0.768-0.357l-2.464-2.937c-0.354-0.423-0.301-1.054,0.122-1.409
				c0.427-0.355,1.057-0.299,1.409,0.124l2.464,2.937c0.354,0.423,0.301,1.054-0.124,1.409
				C51.093,45.435,50.866,45.512,50.639,45.512z"/>
		</g>
		<g>
			<path fill="#0035CD" d="M48.344,48.248c-0.17,0-0.342-0.043-0.499-0.134l-3.318-1.916c-0.479-0.276-0.643-0.888-0.364-1.366
				c0.274-0.479,0.888-0.642,1.364-0.366l3.318,1.916c0.479,0.276,0.643,0.888,0.366,1.366
				C49.026,48.069,48.69,48.248,48.344,48.248z"/>
		</g>
		<g>
			<path fill="#0035CD" d="M74.466,53.395H40.028c-0.553,0-1-0.447-1-1c0-0.551,0.447-1,1-1h34.438c0.553,0,1,0.449,1,1
				C75.466,52.947,75.019,53.395,74.466,53.395z"/>
		</g>
		<g>
			<g>
				<path fill="#0035CD" d="M72.228,53.395c-0.553,0-1-0.447-1-1c0-7.708-6.271-13.979-13.979-13.979S43.27,44.687,43.27,52.395
					c0,0.553-0.447,1-1,1s-1-0.447-1-1c0-8.812,7.168-15.979,15.979-15.979c8.811,0,15.979,7.169,15.979,15.979
					C73.228,52.947,72.78,53.395,72.228,53.395z"/>
			</g>
		</g>
		<g>
			<g>
				<path fill="#0035CD" d="M57.248,53.389c-0.113,0-0.229-0.02-0.344-0.061c-0.52-0.188-0.785-0.764-0.598-1.281l3.519-9.664
					c0.188-0.519,0.766-0.789,1.279-0.598c0.521,0.188,0.787,0.763,0.6,1.281l-3.52,9.665C58.04,53.137,57.656,53.389,57.248,53.389
					z"/>
			</g>
			<g>
				<path fill="#0035CD" d="M62.747,46.465c-0.377,0-0.738-0.213-0.908-0.578l-1.25-2.682l-2.681,1.25
					c-0.505,0.236-1.098,0.016-1.329-0.484c-0.233-0.5-0.019-1.096,0.481-1.329l3.587-1.672c0.504-0.235,1.098-0.017,1.33,0.484
					l1.672,3.588c0.234,0.5,0.02,1.095-0.48,1.329C63.032,46.435,62.888,46.465,62.747,46.465z"/>
			</g>
		</g>
	</g>
	<g>
		<g>
			<path fill="#0035CD" d="M16.052,51.811c-2.277,0-4.131-1.854-4.131-4.131c0-2.279,1.854-4.133,4.131-4.133
				c2.28,0,4.135,1.854,4.135,4.133C20.187,49.957,18.333,51.811,16.052,51.811z M16.052,45.545c-1.175,0-2.131,0.957-2.131,2.133
				c0,1.176,0.956,2.133,2.131,2.133c1.177,0,2.135-0.957,2.135-2.133C18.187,46.502,17.229,45.545,16.052,45.545z"/>
		</g>
		<g>
			<g>
				<path fill="#0035CD" d="M14.987,45.745c-0.406,0-0.792-0.252-0.938-0.659l-1.043-2.866c-0.189-0.519,0.078-1.093,0.598-1.282
					c0.518-0.19,1.093,0.08,1.281,0.598l1.043,2.866c0.189,0.519-0.078,1.093-0.598,1.282C15.216,45.725,15.1,45.745,14.987,45.745z
					"/>
			</g>
			<g>
				<path fill="#0035CD" d="M13.353,47.115c-0.17,0-0.342-0.043-0.499-0.134l-2.642-1.525C9.734,45.18,9.57,44.568,9.846,44.09
					c0.276-0.479,0.888-0.643,1.366-0.366l2.642,1.525c0.479,0.276,0.645,0.888,0.366,1.366
					C14.035,46.936,13.699,47.115,13.353,47.115z"/>
			</g>
			<g>
				<path fill="#0035CD" d="M9.979,49.744c-0.477,0-0.896-0.341-0.981-0.827c-0.099-0.544,0.268-1.062,0.811-1.158l2.996-0.527
					c0.55-0.098,1.062,0.267,1.158,0.812c0.097,0.544-0.27,1.062-0.812,1.158l-2.996,0.527
					C10.094,49.739,10.037,49.744,9.979,49.744z"/>
			</g>
			<g>
				<path fill="#0035CD" d="M12.088,53.396c-0.229,0-0.454-0.076-0.644-0.233c-0.423-0.354-0.479-0.985-0.123-1.409l1.958-2.333
					c0.354-0.422,0.984-0.478,1.408-0.123c0.423,0.355,0.479,0.986,0.123,1.409l-1.958,2.333
					C12.658,53.275,12.375,53.396,12.088,53.396z"/>
			</g>
			<g>
				<path fill="#0035CD" d="M16.053,54.84L16.053,54.84c-0.553,0-1-0.447-1-1l0.001-3.029c0-0.552,0.448-1,1-1l0,0
					c0.553,0,1,0.448,1,1l-0.001,3.029C17.053,54.393,16.605,54.84,16.053,54.84z"/>
			</g>
			<g>
				<path fill="#0035CD" d="M20.018,53.398c-0.286,0-0.567-0.123-0.768-0.357l-1.957-2.333c-0.354-0.423-0.299-1.054,0.124-1.409
					c0.425-0.355,1.055-0.299,1.409,0.124l1.957,2.333c0.354,0.424,0.299,1.055-0.124,1.409
					C20.472,53.322,20.245,53.398,20.018,53.398z"/>
			</g>
			<g>
				<path fill="#0035CD" d="M22.127,49.744c-0.06,0-0.116-0.005-0.175-0.015l-2.994-0.527c-0.544-0.096-0.907-0.614-0.812-1.158
					c0.096-0.544,0.61-0.909,1.158-0.812l2.994,0.527c0.544,0.096,0.907,0.614,0.811,1.158
					C23.026,49.403,22.604,49.744,22.127,49.744z"/>
			</g>
			<g>
				<path fill="#0035CD" d="M18.755,47.115c-0.346,0-0.684-0.179-0.867-0.5c-0.276-0.478-0.112-1.09,0.366-1.366l2.64-1.524
					c0.478-0.278,1.089-0.113,1.366,0.366c0.276,0.478,0.112,1.09-0.366,1.366l-2.64,1.524
					C19.097,47.072,18.925,47.115,18.755,47.115z"/>
			</g>
			<g>
				<path fill="#0035CD" d="M17.121,45.745c-0.113,0-0.229-0.02-0.344-0.061c-0.52-0.189-0.785-0.763-0.598-1.282l1.043-2.865
					c0.188-0.518,0.768-0.788,1.281-0.597c0.52,0.189,0.787,0.763,0.598,1.282l-1.043,2.865
					C17.913,45.492,17.529,45.745,17.121,45.745z"/>
			</g>
		</g>
	</g>
	<g>
		<path fill="#0035CD" d="M103.95,58.648c-0.316,0-0.625-0.152-0.818-0.426L93.966,45.17c-0.215-0.305-0.242-0.705-0.07-1.036
			c0.174-0.331,0.518-0.539,0.891-0.539h3.512l-2.693-8.462c-0.146-0.467,0.062-0.974,0.5-1.195
			c0.439-0.221,0.975-0.093,1.264,0.303l8.533,11.714c0.191,0.182,0.312,0.439,0.312,0.724c0,0.552-0.447,1-1,1
			c-0.006,0-0.012,0-0.021,0h-2.039l1.783,9.79c0.084,0.463-0.164,0.92-0.598,1.102C104.212,58.623,104.081,58.648,103.95,58.648z
			 M96.708,45.597l5.441,7.75l-1.182-6.488c-0.053-0.292,0.025-0.592,0.217-0.82c0.189-0.228,0.473-0.359,0.77-0.359h1.27
			l-3.844-5.276l1.238,3.889c0.096,0.304,0.041,0.636-0.146,0.894c-0.188,0.257-0.488,0.41-0.807,0.41L96.708,45.597L96.708,45.597
			L96.708,45.597z"/>
	</g>
	<g>
		<g>
			<path fill="#0035CD" d="M31.032,10.87c-0.258,0-0.514-0.098-0.707-0.293c-0.393-0.391-0.393-1.024,0-1.415l3.188-3.188
				c0.391-0.39,1.023-0.39,1.414,0c0.391,0.39,0.391,1.024,0,1.415l-3.189,3.188C31.543,10.772,31.288,10.87,31.032,10.87z"/>
		</g>
		<g>
			<path fill="#0035CD" d="M29.65,13.72c-0.256,0-0.512-0.098-0.707-0.293l-4.358-4.36c-0.393-0.391-0.393-1.023,0-1.414l4.358-4.36
				c0.393-0.391,1.023-0.391,1.414,0c0.393,0.391,0.393,1.023,0,1.414L26.704,8.36l3.651,3.653c0.393,0.391,0.393,1.023,0,1.414
				C30.162,13.622,29.906,13.72,29.65,13.72z"/>
		</g>
		<g>
			<path fill="#0035CD" d="M35.864,13.72c-0.256,0-0.512-0.098-0.705-0.293c-0.393-0.39-0.393-1.023,0-1.414l3.65-3.653l-3.65-3.653
				c-0.393-0.391-0.393-1.024,0-1.414c0.391-0.391,1.021-0.391,1.412,0l4.359,4.36c0.391,0.391,0.391,1.023,0,1.414l-4.359,4.36
				C36.375,13.622,36.12,13.72,35.864,13.72z"/>
		</g>
	</g>
	<g>
		<path fill="#0035CD" d="M91.009,17.811c-0.256,0-0.512-0.098-0.707-0.293c-0.391-0.391-0.391-1.024,0-1.414l7.572-7.571
			c0.391-0.391,1.021-0.391,1.414,0c0.391,0.391,0.391,1.024,0,1.414l-7.572,7.571C91.521,17.713,91.265,17.811,91.009,17.811z"/>
	</g>
	<path fill="#0035CD" d="M97.987,14.667c-0.857,0-1.557,0.697-1.557,1.559c0,0.859,0.697,1.557,1.557,1.557
		c0.861,0,1.561-0.697,1.561-1.557C99.546,15.364,98.849,14.667,97.987,14.667L97.987,14.667z"/>
	<path fill="#0035CD" d="M91.579,8.188c-0.861,0-1.559,0.697-1.559,1.557c0,0.861,0.695,1.559,1.559,1.559
		c0.857,0,1.557-0.697,1.557-1.559C93.136,8.886,92.438,8.188,91.579,8.188L91.579,8.188z"/>
	<path fill="#0035CD" d="M92.749,62.238h-3.371l-4.121-6.182V23.859c0-0.553-0.447-1-1-1h-54c-0.553,0-1,0.447-1,1v32.198
		l-4.121,6.182h-3.645L0,81.312l0.772,0.771c0.024,0.021,0.044,0.053,0.071,0.07l17.79,17.791l18.809-5.405l20.27,6.821
		c0.104,0.035,0.212,0.055,0.32,0.055c0.109,0,0.223-0.02,0.328-0.059l19-6.639l18.182,5.227l18.635-18.637L92.749,62.238z
		 M31.256,24.859h52v30.5h-52V24.859z M30.792,57.359h52.93l8.332,12.5H22.458L30.792,57.359z M92.257,71.859v2.5h-70v-2.5H92.257z
		 M22.25,64.238h1.551l-3.377,5.066c-0.109,0.164-0.168,0.355-0.168,0.555v5.5c0,0.553,0.447,1,1,1h72c0.553,0,1-0.447,1-1v-5.5
		c0-0.197-0.061-0.391-0.168-0.555l-3.379-5.066h1.275l18.125,16.133H4.075L22.25,64.238z M19.216,97.7L5.205,83.688L34.11,93.42
		L19.216,97.7z M58.026,99.361L7.563,82.371h99.083L58.026,99.361z M94.962,97.7L80.63,93.58l28.365-9.912L94.962,97.7z"/>
</g>
</svg>
