<?xml version="1.0" encoding="utf-8"?>
<!-- Generator: Adobe Illustrator 16.0.0, SVG Export Plug-In . SVG Version: 6.00 Build 0)  -->
<!DOCTYPE svg PUBLIC "-//W3C//DTD SVG 1.1//EN" "http://www.w3.org/Graphics/SVG/1.1/DTD/svg11.dtd">
<svg version="1.1" id="Layer_1" xmlns="http://www.w3.org/2000/svg" xmlns:xlink="http://www.w3.org/1999/xlink" x="0px" y="0px"
	 width="114.178px" height="101.418px" viewBox="0 0 114.178 101.418" enable-background="new 0 0 114.178 101.418"
	 xml:space="preserve">
<g>
	<path fill="#191919" d="M14.778,35.193l-2.143-0.377c-0.021-0.289-0.07-0.568-0.147-0.838l1.886-1.088
		c0.479-0.276,0.642-0.888,0.365-1.366s-0.89-0.644-1.365-0.366l-1.876,1.083c-0.2-0.206-0.416-0.395-0.654-0.556l0.739-2.031
		c0.188-0.519-0.079-1.093-0.598-1.282c-0.52-0.19-1.094,0.079-1.281,0.597L8.956,31.02c-0.143-0.015-0.279-0.043-0.426-0.043
		c-0.145,0-0.281,0.028-0.423,0.043l-0.746-2.05c-0.188-0.52-0.764-0.787-1.28-0.598c-0.521,0.189-0.787,0.763-0.599,1.282
		l0.739,2.032c-0.238,0.161-0.454,0.351-0.653,0.556l-1.878-1.084c-0.479-0.276-1.09-0.112-1.365,0.366s-0.112,1.09,0.365,1.366
		l1.887,1.089c-0.076,0.27-0.126,0.549-0.146,0.838l-2.145,0.377c-0.545,0.096-0.908,0.614-0.812,1.158
		c0.086,0.484,0.508,0.826,0.984,0.826c0.057,0,0.114-0.005,0.174-0.016l2.131-0.375c0.117,0.264,0.266,0.51,0.434,0.741
		l-1.395,1.66c-0.354,0.423-0.299,1.054,0.123,1.408c0.188,0.157,0.416,0.234,0.643,0.234c0.285,0,0.569-0.121,0.769-0.357
		l1.394-1.661c0.256,0.125,0.522,0.225,0.805,0.296v2.165c0,0.552,0.446,1,1,1l0,0c0.553,0,1-0.447,1-1v-2.166
		c0.28-0.07,0.549-0.171,0.803-0.295l1.395,1.662c0.198,0.236,0.481,0.357,0.769,0.357c0.227,0,0.455-0.077,0.642-0.233
		c0.423-0.355,0.479-0.986,0.124-1.409l-1.394-1.66c0.169-0.231,0.314-0.478,0.435-0.742l2.129,0.375
		c0.06,0.011,0.116,0.016,0.174,0.016c0.478,0,0.898-0.342,0.984-0.826C15.687,35.807,15.323,35.289,14.778,35.193z M9.247,33.11
		c0.004,0.002,0.006,0.005,0.01,0.007c0.008,0.003,0.016,0.002,0.022,0.004c0.457,0.173,0.837,0.496,1.082,0.911
		c0.004,0.005,0.002,0.012,0.007,0.017c0.003,0.006,0.008,0.01,0.012,0.016c0.177,0.311,0.286,0.664,0.286,1.047
		c0,0.122-0.018,0.24-0.036,0.356c0,0.003-0.003,0.006-0.004,0.009c-0.001,0.007,0.002,0.014,0.001,0.021
		c-0.09,0.489-0.352,0.915-0.714,1.227c-0.005,0.004-0.013,0.005-0.018,0.009s-0.007,0.01-0.011,0.014
		c-0.369,0.307-0.838,0.498-1.354,0.498c-0.515,0-0.979-0.191-1.349-0.496c-0.006-0.005-0.008-0.011-0.014-0.016
		s-0.014-0.006-0.02-0.011c-0.361-0.312-0.621-0.735-0.711-1.225c-0.001-0.007,0.002-0.014,0.001-0.021
		c-0.001-0.003-0.004-0.006-0.004-0.009C6.417,35.35,6.4,35.233,6.4,35.111c0-0.381,0.108-0.733,0.284-1.043
		c0.004-0.007,0.01-0.013,0.016-0.02c0.004-0.007,0.003-0.015,0.007-0.021c0.246-0.412,0.622-0.733,1.076-0.905
		C7.79,33.119,7.8,33.12,7.808,33.117c0.004-0.002,0.008-0.006,0.012-0.007c0.225-0.08,0.461-0.132,0.713-0.132
		C8.783,32.978,9.022,33.03,9.247,33.11z"/>
	<g>
		<path fill="#191919" d="M97.169,48.841c-0.435-0.182-0.683-0.64-0.599-1.102l1.781-9.789h-2.037c-0.004,0-0.007,0-0.01,0
			c-0.554,0.013-1.01-0.443-1.01-1c0-0.285,0.119-0.542,0.311-0.725l8.535-11.714c0.289-0.397,0.823-0.524,1.261-0.303
			c0.438,0.222,0.649,0.728,0.501,1.195l-2.694,8.462h3.514c0.373,0,0.715,0.208,0.887,0.539c0.173,0.331,0.146,0.73-0.067,1.036
			l-9.167,13.052c-0.192,0.272-0.501,0.425-0.819,0.425C97.425,48.918,97.294,48.893,97.169,48.841z M101.841,35.867
			c-0.318,0-0.619-0.152-0.807-0.41c-0.189-0.257-0.243-0.589-0.146-0.893l1.238-3.889l-3.846,5.276h1.271
			c0.297,0,0.578,0.132,0.768,0.359c0.19,0.228,0.271,0.528,0.218,0.819l-1.183,6.486l5.443-7.749L101.841,35.867L101.841,35.867z"
			/>
	</g>
	<g>
		<path fill="#191919" d="M17.139,60.385c0.27,0,0.537-0.107,0.734-0.322l9.857-10.674c0.375-0.406,0.351-1.038-0.056-1.413
			c-0.405-0.374-1.038-0.351-1.413,0.057l-9.858,10.676c-0.375,0.405-0.35,1.037,0.057,1.412
			C16.652,60.297,16.896,60.385,17.139,60.385z"/>
		<path fill="#191919" d="M25.718,57.938c0.19,0.166,0.426,0.248,0.66,0.248c0.276,0,0.554-0.115,0.751-0.34l5.745-6.541
			c0.364-0.415,0.323-1.047-0.091-1.412c-0.416-0.364-1.049-0.323-1.411,0.091l-5.745,6.542
			C25.262,56.941,25.303,57.572,25.718,57.938z"/>
		<path fill="#191919" d="M97.142,76.506H96.41c-0.513-6.287-5.782-11.25-12.199-11.25c-6.416,0-11.687,4.963-12.197,11.25H71.28
			c-0.553,0-1,0.448-1,1c0,0.553,0.447,1.001,1,1.001h25.861c0.553,0,1-0.448,1-1.001C98.142,76.954,97.694,76.506,97.142,76.506z
			 M85.638,76.506l1.562-4.287l0.234,0.506c0.17,0.364,0.53,0.578,0.907,0.578c0.142,0,0.285-0.029,0.422-0.094
			c0.5-0.234,0.717-0.828,0.483-1.329l-1.257-2.694c-0.232-0.5-0.828-0.719-1.327-0.483l-2.694,1.256
			c-0.501,0.231-0.718,0.828-0.484,1.328c0.231,0.5,0.827,0.72,1.328,0.483l0.508-0.235l-1.81,4.973h-9.496
			c0.111-1.144,0.418-2.229,0.875-3.231l2.137,1.233c0.157,0.091,0.329,0.134,0.499,0.134c0.347,0,0.683-0.179,0.867-0.5
			c0.276-0.478,0.112-1.09-0.366-1.365l-2.134-1.232c0.308-0.425,0.641-0.83,1.006-1.203l1.583,1.889
			c0.198,0.236,0.481,0.357,0.769,0.357c0.227,0,0.454-0.076,0.642-0.232c0.423-0.354,0.479-0.985,0.124-1.41l-1.586-1.891
			c0.431-0.295,0.888-0.551,1.36-0.777l0.845,2.318c0.146,0.404,0.531,0.657,0.938,0.657c0.113,0,0.229-0.021,0.343-0.062
			c0.52-0.188,0.787-0.762,0.598-1.281l-0.845-2.319c0.814-0.21,1.664-0.333,2.544-0.333c5.313,0,9.693,4.066,10.199,9.25h-8.773
			V76.506z"/>
		<path fill="#191919" d="M94.245,62.197H71.011l11.524-41.012c0.015-0.05,0.011-0.101,0.017-0.151
			c0.006-0.043,0.015-0.084,0.014-0.128c-0.001-0.111-0.019-0.22-0.055-0.323c-0.004-0.01-0.002-0.021-0.006-0.031
			c0-0.001-0.002-0.002-0.002-0.003c-0.045-0.113-0.113-0.214-0.195-0.304c-0.029-0.031-0.062-0.052-0.094-0.079
			c-0.042-0.037-0.078-0.079-0.127-0.108c-0.021-0.013-0.046-0.016-0.067-0.027c-0.04-0.02-0.08-0.034-0.122-0.048
			c-0.075-0.026-0.148-0.043-0.227-0.051c-0.042-0.004-0.082-0.007-0.125-0.006c-0.089,0.002-0.174,0.019-0.26,0.044
			c-0.025,0.007-0.052,0.003-0.076,0.013l-55.989,21.75c-0.361,0.14-0.608,0.477-0.636,0.863c-0.026,0.387,0.173,0.754,0.512,0.942
			l17.478,9.729c0.153,0.086,0.32,0.127,0.484,0.127c0.353,0,0.691-0.186,0.875-0.515c0.27-0.481,0.095-1.091-0.388-1.36
			l-15.617-8.694l49.319-19.158L45.915,53.641c-0.014,0.012-0.026,0.024-0.039,0.039c-0.162,0.17-0.253,0.387-0.271,0.607
			c0,0,0,0,0,0.001c-0.001,0-0.001,0.001,0,0.003c-0.002,0.021-0.003,0.044-0.003,0.066l0,0v0.002c-0.001,0-0.001,0.002,0,0.006
			c0,0.001,0,0.002,0,0.003v7.831H30.335l4.579-4.959c0.375-0.406,0.35-1.039-0.057-1.414c-0.404-0.373-1.038-0.352-1.413,0.057
			l-5.832,6.316h-7.573L0.028,81.339l0.74,0.74c0.026,0.026,0.049,0.058,0.079,0.08l17.789,17.788l18.808-5.405l20.27,6.823
			c0.104,0.035,0.212,0.053,0.319,0.053c0.11,0,0.223-0.02,0.329-0.057l19-6.641l18.182,5.227l18.605-18.606L94.245,62.197z
			 M79.62,24.166L67.792,66.264L48.228,54.195L79.62,24.166z M57.393,62.199h-2.964l0.863-1.297L57.393,62.199z M47.602,56.158
			l5.987,3.693l-5.987,8.986V56.158z M20.842,64.199h4.925l-2.18,2.359c-0.375,0.405-0.351,1.037,0.056,1.412
			c0.192,0.178,0.437,0.266,0.679,0.266c0.27,0,0.537-0.107,0.734-0.321l3.432-3.716h17.114v7.943c0,0.44,0.288,0.83,0.71,0.957
			c0.097,0.029,0.193,0.043,0.29,0.043c0.328,0,0.645-0.162,0.832-0.445l5.662-8.498h7.54l7.234,4.462
			c0.268,0.165,0.597,0.194,0.889,0.081c0.293-0.115,0.515-0.359,0.6-0.662l1.092-3.883h22.988l16.817,16.174H3.934L20.842,64.199z
			 M19.217,97.7L5.204,83.688l28.905,9.731L19.217,97.7z M58.026,99.359L7.562,82.371h99.083L58.026,99.359z M94.963,97.7
			L80.63,93.581l28.365-9.912L94.963,97.7z"/>
		<path fill="#191919" d="M64.536,86.833c-0.611-1.476-2.069-2.431-3.715-2.431c-1.073,0-2.096,0.406-2.959,1.162
			c-0.862-0.756-1.885-1.162-2.959-1.162c-1.645,0-3.102,0.955-3.714,2.431c-0.702,1.694-0.146,3.628,1.529,5.304
			c0.517,0.514,4.437,4.381,4.437,4.381c0.188,0.186,0.439,0.289,0.702,0.289h0.011c0.263,0,0.516-0.104,0.701-0.289
			c0,0,3.92-3.867,4.438-4.383C64.682,90.461,65.238,88.527,64.536,86.833z M61.597,90.719c-0.379,0.377-2.583,2.553-3.733,3.688
			c-1.148-1.135-3.354-3.311-3.73-3.686c-1.072-1.072-1.471-2.211-1.093-3.121c0.296-0.715,1.046-1.195,1.864-1.195
			c0.789,0,1.56,0.438,2.165,1.23c0.38,0.493,1.209,0.493,1.589,0c0.605-0.794,1.376-1.23,2.164-1.23c0.82,0,1.57,0.48,1.866,1.195
			C63.065,88.51,62.667,89.646,61.597,90.719z"/>
	</g>
</g>
</svg>
