<?xml version="1.0" encoding="utf-8"?>
<!-- Generator: Adobe Illustrator 16.0.0, SVG Export Plug-In . SVG Version: 6.00 Build 0)  -->
<!DOCTYPE svg PUBLIC "-//W3C//DTD SVG 1.1//EN" "http://www.w3.org/Graphics/SVG/1.1/DTD/svg11.dtd">
<svg version="1.1" id="Layer_1" xmlns="http://www.w3.org/2000/svg" xmlns:xlink="http://www.w3.org/1999/xlink" x="0px" y="0px"
	 width="114.121px" height="88.615px" viewBox="0 0 114.121 88.615" enable-background="new 0 0 114.121 88.615"
	 xml:space="preserve">
<g>
	<path d="M0.999,38.04c0.057,0,0.116-0.005,0.174-0.016l2.13-0.375c0.118,0.264,0.265,0.51,0.433,0.741l-1.394,1.66
		c-0.355,0.423-0.3,1.054,0.123,1.408c0.188,0.157,0.416,0.234,0.643,0.234c0.285,0,0.569-0.121,0.767-0.357l1.394-1.661
		c0.256,0.125,0.523,0.225,0.804,0.296l0,2.165c0,0.552,0.447,1,1,1c0,0,0,0,0,0c0.552,0,1-0.447,1-1l0-2.166
		c0.281-0.07,0.548-0.171,0.803-0.295l1.395,1.662c0.198,0.236,0.481,0.357,0.767,0.357c0.227,0,0.455-0.077,0.642-0.233
		c0.423-0.355,0.479-0.986,0.124-1.409l-1.393-1.66c0.168-0.231,0.316-0.478,0.434-0.742l2.129,0.375
		c0.059,0.011,0.117,0.016,0.174,0.016c0.477,0,0.898-0.342,0.984-0.826c0.096-0.544-0.268-1.062-0.812-1.158l-2.143-0.377
		c-0.021-0.289-0.07-0.568-0.148-0.838l1.885-1.088c0.479-0.276,0.642-0.888,0.366-1.366s-0.889-0.644-1.366-0.366l-1.876,1.083
		c-0.2-0.206-0.416-0.395-0.654-0.556l0.739-2.031c0.189-0.519-0.079-1.093-0.597-1.282c-0.52-0.19-1.093,0.079-1.282,0.597
		l-0.747,2.051c-0.142-0.015-0.28-0.043-0.425-0.043c-0.145,0-0.282,0.028-0.422,0.043l-0.746-2.051
		c-0.189-0.52-0.764-0.787-1.282-0.598c-0.519,0.189-0.787,0.763-0.598,1.282l0.739,2.032c-0.238,0.161-0.454,0.351-0.653,0.556
		l-1.878-1.084c-0.479-0.276-1.09-0.112-1.366,0.366c-0.276,0.478-0.112,1.09,0.366,1.366l1.886,1.089
		c-0.077,0.27-0.126,0.549-0.147,0.838l-2.145,0.377c-0.544,0.096-0.907,0.614-0.812,1.158C0.101,37.698,0.522,38.04,0.999,38.04z
		 M5.225,34.93c0.004-0.007,0.011-0.013,0.015-0.02c0.004-0.007,0.003-0.015,0.007-0.021c0.246-0.412,0.622-0.733,1.076-0.905
		c0.008-0.003,0.017-0.002,0.025-0.005c0.004-0.002,0.007-0.006,0.012-0.007c0.224-0.08,0.461-0.132,0.712-0.132
		c0.252,0,0.491,0.052,0.716,0.132c0.004,0.002,0.006,0.005,0.01,0.007c0.008,0.003,0.016,0.002,0.023,0.004
		c0.457,0.173,0.835,0.496,1.082,0.911c0.003,0.005,0.002,0.012,0.005,0.017c0.003,0.006,0.008,0.01,0.012,0.016
		c0.177,0.311,0.287,0.664,0.287,1.047c0,0.122-0.016,0.24-0.036,0.356c0,0.003-0.003,0.006-0.003,0.009
		c-0.001,0.007,0.001,0.014,0,0.021c-0.09,0.489-0.35,0.915-0.714,1.227c-0.005,0.004-0.012,0.005-0.017,0.009
		s-0.006,0.01-0.011,0.014c-0.37,0.307-0.838,0.498-1.354,0.498c-0.515,0-0.98-0.191-1.349-0.496
		c-0.005-0.005-0.007-0.011-0.013-0.016c-0.006-0.005-0.013-0.006-0.019-0.011c-0.362-0.312-0.621-0.735-0.711-1.225
		c-0.001-0.007,0.002-0.014,0-0.021c0-0.003-0.003-0.006-0.003-0.009c-0.02-0.117-0.036-0.234-0.036-0.356
		C4.941,35.592,5.05,35.24,5.225,34.93z"/>
	<path d="M96.489,42.145c0.192,0.272,0.501,0.425,0.819,0.425c0.129,0,0.26-0.025,0.385-0.077c0.434-0.182,0.682-0.64,0.598-1.102
		l-1.781-9.789h2.037c0.004,0,0.007,0,0.01,0c0.554,0.013,1.01-0.443,1.01-1c0-0.285-0.119-0.542-0.311-0.725l-8.535-11.714
		c-0.289-0.397-0.823-0.524-1.261-0.303c-0.438,0.222-0.649,0.728-0.501,1.195l2.695,8.462h-3.514c-0.373,0-0.715,0.208-0.887,0.539
		c-0.173,0.331-0.146,0.73,0.068,1.036L96.489,42.145z M93.021,29.518c0.318,0,0.619-0.152,0.807-0.41
		c0.189-0.257,0.243-0.589,0.146-0.893l-1.238-3.889l3.845,5.276h-1.271c-0.297,0-0.578,0.132-0.768,0.359
		c-0.19,0.228-0.27,0.528-0.217,0.819l1.182,6.486l-5.443-7.749H93.021z"/>
	<path d="M64.508,74.03c-0.611-1.477-2.069-2.43-3.714-2.43c-1.074,0-2.096,0.406-2.959,1.161c-0.863-0.755-1.885-1.161-2.959-1.161
		c-1.644,0-3.102,0.953-3.713,2.43c-0.703,1.695-0.146,3.628,1.528,5.303c0.516,0.515,4.437,4.382,4.437,4.382
		c0.187,0.185,0.439,0.288,0.702,0.288h0.009c0.263,0,0.515-0.104,0.702-0.288c0,0,3.922-3.867,4.439-4.384
		C64.653,77.657,65.21,75.725,64.508,74.03z M61.567,77.916c-0.378,0.376-2.583,2.552-3.732,3.687
		c-1.15-1.135-3.354-3.31-3.731-3.686c-1.072-1.072-1.471-2.211-1.093-3.121c0.296-0.715,1.045-1.195,1.865-1.195
		c0.789,0,1.558,0.438,2.165,1.23c0.378,0.494,1.21,0.494,1.588,0c0.607-0.793,1.376-1.23,2.165-1.23
		c0.819,0,1.569,0.48,1.866,1.195C63.037,75.706,62.639,76.844,61.567,77.916z"/>
	<path d="M74.707,30.631l-0.09,0.093l7.555-29.487c0.021-0.084,0.021-0.169,0.02-0.252c0-0.025,0.009-0.049,0.007-0.075
		c-0.01-0.124-0.045-0.241-0.098-0.351c-0.004-0.008-0.003-0.016-0.007-0.024c-0.014-0.026-0.037-0.042-0.053-0.067
		c-0.045-0.073-0.096-0.141-0.158-0.2c-0.037-0.035-0.078-0.062-0.119-0.091c-0.033-0.022-0.059-0.053-0.094-0.072
		c-0.028-0.015-0.059-0.017-0.088-0.029c-0.049-0.02-0.096-0.036-0.147-0.048c-0.07-0.017-0.139-0.024-0.21-0.026
		C81.176,0,81.131-0.002,81.082,0.004c-0.09,0.011-0.175,0.038-0.259,0.073c-0.024,0.01-0.051,0.009-0.075,0.021L24.103,28.952
		c-0.329,0.168-0.539,0.503-0.546,0.873c-0.007,0.37,0.191,0.712,0.514,0.892l9.776,5.443L0,68.536l0.746,0.746
		c0.025,0.023,0.045,0.051,0.073,0.072l17.79,17.791l18.809-5.406l20.268,6.824c0.104,0.034,0.211,0.052,0.319,0.052
		c0.111,0,0.223-0.019,0.33-0.056l19-6.641l18.182,5.227l18.605-18.607L74.707,30.631z M66.738,53.424l-19.63-12.108l32.089-36.53
		L66.738,53.424z M52.563,47.031l-5.988,8.987V43.337L52.563,47.031z M35.676,37.178l5.872,3.269
		c0.154,0.086,0.321,0.126,0.485,0.126c0.351,0,0.692-0.185,0.875-0.514c0.269-0.482,0.095-1.091-0.387-1.36l-15.837-8.818
		L77.009,4.248L44.828,40.882c-0.008,0.009-0.017,0.019-0.024,0.029c-0.001,0,0,0.001-0.001,0.001
		c-0.153,0.186-0.228,0.412-0.227,0.637v17.773c0,0.44,0.289,0.829,0.71,0.957c0.096,0.029,0.193,0.043,0.29,0.043
		c0.328,0,0.643-0.162,0.832-0.445l7.859-11.796l12.578,7.759c0.271,0.168,0.605,0.195,0.9,0.076
		c0.294-0.119,0.515-0.371,0.594-0.68l5.746-22.43l36.143,34.761H88.775v-2.354c0-0.553-0.448-1-1-1c-0.553,0-1,0.447-1,1v2.354
		h-2.104v-6.354c0-0.553-0.448-1-1-1s-1,0.447-1,1v6.354h-2.104v-4.354c0-0.553-0.447-1-1-1s-1,0.447-1,1v4.354h-2.104V56.213
		c0-0.553-0.448-1-1-1c-0.553,0-1,0.447-1,1v11.354h-1.917v-5.437c0-0.553-0.448-1-1-1s-1,0.447-1,1v5.437H3.906L35.676,37.178z
		 M19.189,84.897L5.176,70.884l28.907,9.731L19.189,84.897z M57.998,86.557L7.535,69.568h99.083L57.998,86.557z M94.935,84.897
		l-14.333-4.119l28.365-9.912L94.935,84.897z"/>
	<path d="M56.25,53.014l-4.124,4.695c-0.364,0.414-0.323,1.047,0.091,1.411c0.19,0.167,0.425,0.249,0.66,0.249
		c0.278,0,0.554-0.115,0.752-0.34l4.124-4.695c0.364-0.415,0.323-1.047-0.091-1.412C57.246,52.559,56.614,52.6,56.25,53.014z"/>
	<path d="M33.204,43.845c-0.415-0.364-1.047-0.323-1.412,0.091l-5.903,6.72c-0.364,0.414-0.323,1.047,0.091,1.411
		c0.19,0.167,0.425,0.249,0.66,0.249c0.278,0,0.554-0.115,0.752-0.34l5.903-6.721C33.659,44.842,33.618,44.21,33.204,43.845z"/>
	<path d="M39.561,42.634l-5.745,6.541c-0.364,0.415-0.323,1.047,0.091,1.411c0.19,0.167,0.425,0.249,0.66,0.249
		c0.278,0,0.554-0.115,0.752-0.34l5.745-6.541c0.364-0.415,0.323-1.047-0.091-1.412C40.558,42.179,39.925,42.221,39.561,42.634z"/>
	<path d="M36.157,55.362l-4.682,5.33c-0.364,0.414-0.323,1.047,0.091,1.411c0.19,0.167,0.425,0.249,0.66,0.249
		c0.278,0,0.554-0.115,0.752-0.34l4.682-5.33c0.364-0.415,0.323-1.047-0.091-1.412C37.154,54.907,36.522,54.948,36.157,55.362z"/>
</g>
</svg>
