<?xml version="1.0" encoding="utf-8"?>
<!-- Generator: Adobe Illustrator 16.0.0, SVG Export Plug-In . SVG Version: 6.00 Build 0)  -->
<!DOCTYPE svg PUBLIC "-//W3C//DTD SVG 1.1//EN" "http://www.w3.org/Graphics/SVG/1.1/DTD/svg11.dtd">
<svg version="1.1" id="Layer_1" xmlns="http://www.w3.org/2000/svg" xmlns:xlink="http://www.w3.org/1999/xlink" x="0px" y="0px"
	 width="41.939px" height="41.5px" viewBox="0 0 41.939 41.5" enable-background="new 0 0 41.939 41.5" xml:space="preserve">
<g>
	<g>
		<path fill="#FFFFFF" d="M20.953,0C6.984,0,0,6.917,0,20.75C0,34.584,6.984,41.5,20.953,41.5c13.991,0,20.986-6.916,20.986-20.75
			C41.939,6.917,34.944,0,20.953,0z M33.194,33.377c-2.566,2.668-6.646,4.004-12.241,4.004c-5.551,0-9.615-1.336-12.192-4.004
			C6.183,30.709,4.894,26.5,4.894,20.75c0-5.751,1.289-9.96,3.867-12.628c2.577-2.668,6.641-4.002,12.192-4.002
			c5.595,0,9.675,1.334,12.241,4.002s3.85,6.877,3.85,12.628C37.043,26.5,35.76,30.709,33.194,33.377z"/>
		<path fill="#FFFFFF" d="M28.641,18.853l-10.242-7.901c-0.518-0.398-1.165-0.636-1.837-0.713c-0.374-0.043-1.42-0.027-1.573-0.027
			c-1.462,0-2.648,1.47-2.648,3.285v14.506c0,1.816,1.186,3.285,2.648,3.285c0.152,0,0.837-0.002,1.034,0
			c0.859,0.012,1.722-0.234,2.376-0.74l10.242-7.9c0.677-0.521,0.992-1.213,0.955-1.896C29.633,20.067,29.318,19.374,28.641,18.853z
			"/>
	</g>
</g>
</svg>
