<?xml version="1.0" encoding="utf-8"?>
<!-- Generator: Adobe Illustrator 16.0.0, SVG Export Plug-In . SVG Version: 6.00 Build 0)  -->
<!DOCTYPE svg PUBLIC "-//W3C//DTD SVG 1.1//EN" "http://www.w3.org/Graphics/SVG/1.1/DTD/svg11.dtd">
<svg version="1.1" id="Layer_1" xmlns="http://www.w3.org/2000/svg" xmlns:xlink="http://www.w3.org/1999/xlink" x="0px" y="0px"
	 width="35.7px" height="35.7px" viewBox="0 0 35.7 35.7" enable-background="new 0 0 35.7 35.7" xml:space="preserve">
<path fill="#FFFFFF" d="M14.204,12.089l9.701,5.761l-9.701,5.76V12.089 M11.503,7.346v21.007l17.69-10.503L11.503,7.346
	L11.503,7.346z"/>
<g>
	<path fill="#FFFFFF" d="M17.85,35.7C8.008,35.7,0,27.693,0,17.85C0,8.008,8.008,0,17.85,0C27.693,0,35.7,8.008,35.7,17.85
		C35.7,27.693,27.693,35.7,17.85,35.7z M17.85,2.7C9.497,2.7,2.7,9.497,2.7,17.85S9.497,33,17.85,33S33,26.204,33,17.85
		S26.204,2.7,17.85,2.7z"/>
</g>
</svg>
