<?xml version="1.0" encoding="utf-8"?>
<!-- Generator: Adobe Illustrator 16.0.0, SVG Export Plug-In . SVG Version: 6.00 Build 0)  -->
<!DOCTYPE svg PUBLIC "-//W3C//DTD SVG 1.1//EN" "http://www.w3.org/Graphics/SVG/1.1/DTD/svg11.dtd">
<svg version="1.1" id="Layer_1" xmlns="http://www.w3.org/2000/svg" xmlns:xlink="http://www.w3.org/1999/xlink" x="0px" y="0px"
	 width="80px" height="80px" viewBox="0 0 80 80" enable-background="new 0 0 80 80" xml:space="preserve">
<g>
	<path fill="#FFFFFF" d="M6,66.912h51.354c0.555,0,1-0.447,1-1v-4.28c0-0.44-0.289-0.829-0.713-0.958L15.497,48.029
		c-0.265-3.493-1.017-20.171,7.579-29.773c3.95-4.414,9.384-6.754,16.158-6.961v3.264c0,0.553,0.447,1,1,1h7.621
		c0.367,3.423,2.644,8.559,9.498,8.559s9.131-5.136,9.496-8.559h7.621c0.553,0,1-0.447,1-1V6c0-0.553-0.447-1-1-1H40.234
		c-0.553,0-1,0.447-1,1v3.294c-7.371,0.211-13.304,2.774-17.647,7.629c-9.629,10.755-8.302,29.024-8.052,31.683l-8.43,16.858
		c-0.154,0.312-0.139,0.679,0.044,0.974C5.333,66.732,5.654,66.912,6,66.912z M57.354,22.117c-5.861,0-7.174-4.5-7.469-6.559h14.938
		C64.527,17.617,63.217,22.117,57.354,22.117z M41.234,7h32.236v6.559H48.795h-7.562L41.234,7L41.234,7z M15.078,49.993
		l41.275,12.383v2.536H7.619L15.078,49.993z"/>
	<path fill="#FFFFFF" d="M48.088,26.689l-8.562,8.56c-0.391,0.391-0.391,1.023,0,1.414c0.195,0.195,0.451,0.293,0.707,0.293
		c0.258,0,0.514-0.098,0.707-0.293l8.562-8.56c0.391-0.391,0.391-1.023,0-1.414S48.479,26.299,48.088,26.689z"/>
	<path fill="#FFFFFF" d="M56.354,31.676v12.837c0,0.553,0.447,1,1,1c0.555,0,1-0.447,1-1V31.676c0-0.553-0.445-1-1-1
		C56.801,30.676,56.354,31.123,56.354,31.676z"/>
	<path fill="#FFFFFF" d="M66.62,26.689c-0.392-0.391-1.022-0.391-1.414,0s-0.392,1.023,0,1.414l8.56,8.56
		c0.194,0.195,0.45,0.293,0.707,0.293c0.256,0,0.512-0.098,0.707-0.293c0.391-0.391,0.391-1.023,0-1.414L66.62,26.689z"/>
</g>
</svg>
