<?xml version="1.0" encoding="utf-8"?>
<!-- Generator: Adobe Illustrator 16.0.0, SVG Export Plug-In . SVG Version: 6.00 Build 0)  -->
<!DOCTYPE svg PUBLIC "-//W3C//DTD SVG 1.1//EN" "http://www.w3.org/Graphics/SVG/1.1/DTD/svg11.dtd">
<svg version="1.1" id="Layer_1" xmlns="http://www.w3.org/2000/svg" xmlns:xlink="http://www.w3.org/1999/xlink" x="0px" y="0px"
	 width="259.409px" height="65.131px" viewBox="0 0 259.409 65.131" enable-background="new 0 0 259.409 65.131"
	 xml:space="preserve">
<g>
	<rect y="0" width="20.753" height="65.13"/>
	<polygon points="46.694,0 25.941,10.855 25.941,65.131 46.694,65.131 	"/>
	<polygon points="62.258,0 62.258,54.275 83.011,65.131 83.011,0 	"/>
	<polygon points="88.2,0 88.2,65.131 108.952,54.275 108.952,0 	"/>
	<rect x="238.655" y="0" width="20.754" height="65.13"/>
	<polygon points="233.467,0 212.714,10.855 212.714,54.275 233.467,65.131 	"/>
	<polygon points="171.209,0 150.458,10.855 150.458,65.131 171.209,65.131 	"/>
	<polygon points="197.152,0 176.397,10.855 176.397,65.131 197.152,65.131 	"/>
	<rect x="124.516" y="0" width="20.753" height="65.13"/>
</g>
</svg>
