<?xml version="1.0" encoding="utf-8"?>
<!-- Generator: Adobe Illustrator 16.0.0, SVG Export Plug-In . SVG Version: 6.00 Build 0)  -->
<!DOCTYPE svg PUBLIC "-//W3C//DTD SVG 1.1//EN" "http://www.w3.org/Graphics/SVG/1.1/DTD/svg11.dtd">
<svg version="1.1" id="Layer_1" xmlns="http://www.w3.org/2000/svg" xmlns:xlink="http://www.w3.org/1999/xlink" x="0px" y="0px"
	 width="548.9px" height="301.68px" viewBox="0 0 548.9 301.68" enable-background="new 0 0 548.9 301.68" xml:space="preserve">
<g>
	<g>
		<path d="M136.561,187.167h-7.369l-8.875-8.875h-8.336v-5.625H99.69l-3.21-3.211v-6.498h-6.248l-9.919-9.919v-6.706h-3.79
			l-3.461-3.461v-12.394h-3.436l-3.773-3.773v-18.041l-0.871-0.871h-4.918l-3.42-3.421v-6.29l-8.794-8.793v-4.913l-0.827-0.827
			H35.787l-2.572-2.572v-5.59l-1.879-1.879h-4.664l-2.094,2.094V90.93l-10.289,10.289h-2.672L8.5,98.102v-8.141l6.898-6.898H3.211
			L0,79.852v-5.703l8.062-8.062v-1.211H0.688v-6.227l9.336-9.336h62.205V43.04l-2.164-2.164h-4.836v-5.331l3.92-3.92h11.748v-6.499
			h15v6.33l-7.667,7.667v2.835h8.917v12.336l2.289,2.289h6.543V44.711l4.084-4.084l18.75,18.75v4.915h-7.166v8.666h-8.25v16.836
			l1.496,1.497h13.25l2.128,2.128v4.708l1.519,1.519h5.359l1.966-1.966V83.122L128.922,72.93v-7.222h7.346l10.378,10.378v5.521
			l0.83,1.435h14.339V90h6.039l2.711,2.711v10.994l-2.67,2.67h-12.333l-0.997,0.997v6.253h8.208v5.706l-3.462,3.461h-4.192v6.302
			l-8.474,8.474h-6.191l-1.723,1.723v16.044h-6.289l-9.459-9.459h-4.922l-2.08,2.081v13.722h6.861l16.867,16.867v5.475
			L136.561,187.167z M130.02,185.167h5.713l1.977-1.976v-3.818l-15.695-15.695h-8.033v-16.55l3.252-3.253h6.578l9.459,9.459h3.461
			v-14.872l2.895-2.895h6.191l7.302-7.302v-7.474h5.364l2.29-2.289v-2.878h-8.208v-9.081l2.169-2.169h12.333l1.498-1.498v-9.338
			L167.025,92h-7.211v-6.959h-13.493l-1.676-2.897v-5.229l-9.206-9.206h-4.518v4.394l10.192,10.192v16.214l-3.138,3.138h-7.016
			l-2.69-2.69v-4.708l-0.956-0.956h-13.25l-2.668-2.669V70.958h8.25v-8.666h7.166v-2.087l-16.75-16.75l-2.084,2.084v13.044h-9.371
			l-3.461-3.461V43.958h-8.917v-5.663l7.667-7.667v-3.502h-11v6.499h-12.92l-2.748,2.748v2.503h3.664l3.336,3.336v9.101H10.852
			l-8.164,8.164v3.398h7.375v4.039L2,74.977v4.047l2.039,2.039h13.523v2.664L10.5,90.789v6.484l1.945,1.945h1.016l9.117-9.117
			V74.773l3.266-3.266h6.32l3.051,3.051v5.59l1.4,1.4h11.236l1.999,1.999v4.913l8.794,8.793v6.29l2.248,2.249h4.918l2.043,2.043
			v18.041l2.602,2.602h4.607v13.565l2.289,2.289h4.962v7.878l8.747,8.747h7.42v7.67l2.038,2.039h13.462v5.625h7.164L130.02,185.167z
			"/>
	</g>
	<g>
		<path d="M153.898,171.547h-13.375l-3.391-3.391v-6.094h16.031l3.492,3.492v3.234L153.898,171.547z M141.352,169.547h11.719
			l1.586-1.586v-1.578l-2.32-2.32h-13.203v3.266L141.352,169.547z"/>
	</g>
	<g>
		<path d="M104.033,41.572h-4.316l-3.021-3.021v-5.176h7.855l1.997,1.998v3.685L104.033,41.572z M100.545,39.572h2.66l1.343-1.343
			v-2.028l-0.825-0.826h-5.027v2.348L100.545,39.572z"/>
	</g>
	<g>
		<path d="M113.312,32.542h-7.498l-7.71-7.711v-7.539h6.956l8.252,8.253V32.542z M106.643,30.542h4.67v-4.169l-7.08-7.081h-4.128
			v4.711L106.643,30.542z"/>
	</g>
	<g>
		<path d="M158.406,301.68h-5.258l-9.426-9.426v-45.668l7.438-7.438v-11.523h-6.137l-9.273-9.273v-26.889l0.126-0.378l0.198-0.261
			l12.074-12.074h12.703l5.834,5.834h11.127v8.666h9.539l8.625,8.625h7.336v23.289l-2.961,2.961h-6.164v6.625h-7.625v6.289
			l-9.898,9.898h-6.1v7.102l-2.837,2.837h-5.29v19.913l-4.727,4.727l4.711,4.711v7.438L158.406,301.68z M153.977,299.68h3.602
			l2.844-2.844v-5.781l-5.539-5.539l5.555-5.555v-21.085h6.462l1.665-1.665v-8.273h7.271l8.727-8.727v-7.461h7.625v-6.625h7.336
			l1.789-1.789v-20.461h-6.164l-8.625-8.625h-10.711v-8.666h-9.955l-5.834-5.834h-11.047l-11.227,11.227v25.547l8.102,8.102h7.309
			v14.352l-7.438,7.438v44.012L153.977,299.68z"/>
	</g>
	<g>
		<path d="M524.227,276.584h-4.537l-2.961-2.961v-5.662l8.334-8.333v-6.444l3.444-4.193h1.854l3.639,3.638v14.183L524.227,276.584z
			 M520.518,274.584h2.881l8.602-8.602v-12.526l-2.467-2.466h-0.081l-2.39,2.91v6.556l-8.334,8.333v4.006L520.518,274.584z"/>
	</g>
	<g>
		<path d="M491.352,260.406h-14.484l-8.969-8.969h-27.938l-3.398-3.398v-20.805h13.82l1.523-1.523v-6.531l9.742-9.742h4.641
			l2.648,2.648v6.654h15.424l16.722,16.721v15.214L491.352,260.406z M477.695,258.406h12.828l8.56-8.56v-13.558l-15.55-15.549
			h-16.596v-7.826l-1.477-1.477h-2.984l-8.57,8.57v6.531l-2.695,2.695h-12.648v17.977l2.227,2.227h27.938L477.695,258.406z"/>
	</g>
	<g>
		<path d="M491.799,211.297H477.97l-10.282-10.283v-6.872h7.879l8.906,8.906h10.246v5.328L491.799,211.297z M478.798,209.297h12.173
			l1.748-1.749v-2.5h-9.074l-8.906-8.906h-5.051v4.044L478.798,209.297z"/>
	</g>
	<g>
		<path d="M307.561,251.291h-13.831l-10.836-10.836V202.29h-7.583v-9.336l-7.622-7.622h-22.542l-10.148-10.148V156.21l9.159-9.159
			h10.57v-3.844h-9.247l-3.252-3.252v-10.828l2.961-2.961h5.872v-1.956l2.628-2.628h1.705v-12.62l3.461-3.46h2.955V97.96h20.836
			l8.584-8.583h7.164v-7.583h7.583v-7.001h-6.249v-9.166h-8.916v15.666h-8v8.834h-13.219l-3.143-3.143v-5.271l7.931-7.931v-8.239
			h9.014v-6.997l9.503-9.503h22.998v14.334l2.039,2.039h4.963l2.061-2.061V50.291h7.854v7h22.75v-6.247l10.629-10.629h23.542
			l8.104-8.104h21.564l1.55-1.55v-8.722h9.698V38.04l2.664,2.664h26.419v8h16v-8.083h17.583v9.334h46.582l9.002,9.002v7.245
			l-7.67,7.669h-15.499l-1.539,1.539v5.709l-7.898,7.898h-7.56v13.521l-3.045,3.045h-5.372V90.044l13.876-13.876v-3.212h-6.795
			l-8.875,8.875h-20.539v7.706l-8.625,8.625v23.461h-8.875v24.246l-8.307-8.307v-6.857H445.4v6.253l8.416,8.417v17.164h-32.668
			v6.583h7.919v7.747l-9.169,9.168v14.919h-5.581l-3.544-3.544v-18.875l-7.646-7.646v-9.268h-5.896v9.73h-9.168v12.937l-2.815,2.815
			h-3.808l-10.431-10.43v-14.342h-4.404l-2.961-2.961v-4.163h-15.579l-9.626-9.626h-7.71v8.373h8.831l8.92,8.92v9.913h-16.167v4.75
			h6.416v6.664l-10.378,10.378h-5.205v32.209h-7.918v16.333h-7.668V251.291z M294.558,249.291h11.003v-8.167h7.668v-16.333h7.918
			v-32.209h6.377l9.206-9.206v-3.836h-6.416v-8.75h16.167v-7.085l-7.748-7.748h-10.003v-12.373h10.538l9.626,9.626h16.751v5.335
			l1.789,1.789h5.576v15.514l9.259,9.258h2.151l1.644-1.644v-14.108h9.168v-9.73h9.896v10.439l7.646,7.646v18.875l2.372,2.372h2.753
			v-13.747l9.169-9.168v-4.919h-7.919v-10.583h32.668v-14.336l-8.416-8.417v-9.081h10.777v8.029l4.307,4.307v-21.418h8.875V97.334
			l8.625-8.625v-8.878h21.711l8.875-8.875h9.623v6.04l-13.876,13.876v12.711h2.544l1.873-1.873V87.018h8.731l6.727-6.727v-5.709
			l2.711-2.711h15.499l6.498-6.497v-5.589l-7.83-7.83h-47.754v-9.334h-13.583v8.083h-20v-8h-25.247l-3.836-3.836V24.039h-5.698v7.55
			l-2.722,2.722h-21.564l-8.104,8.104H367.02l-9.457,9.457v7.419h-26.75v-7h-3.854v11.893l-3.232,3.232h-6.619l-3.211-3.211V51.043
			h-20.17l-8.331,8.331v8.169h-9.014v7.067l-7.931,7.931v3.615l1.971,1.971h10.391v-8.834h8V63.627h12.916v9.166h6.249v11.001
			h-7.583v7.583h-8.336l-8.584,8.583h-19.664v7.542h-4.127l-2.289,2.288v13.792h-2.877l-1.456,1.456v3.128h-7.044l-1.789,1.789
			v9.172l2.08,2.08h10.419v7.844h-11.742l-7.987,7.987v17.317l8.977,8.977h22.542l8.794,8.794v8.164h7.583v39.337L294.558,249.291z"
			/>
	</g>
	<g>
		<path d="M175.159,118.16l-4.249-4.271v-2.509l5.439-5.417l5.503,5.504L175.159,118.16z M172.91,113.062l2.253,2.266l3.861-3.861
			l-2.679-2.678l-3.436,3.421V113.062z"/>
	</g>
	<g>
		<path d="M163.062,74.209h-16.583V58.873L144.607,57h-13.795v-7.377l-1.539-1.539h-7.711v-6.792h24.414l8.753,8.753v8.167
			l8.333,8.333V74.209z M148.479,72.209h12.583v-4.836l-8.333-8.333v-8.167l-7.581-7.581h-21.586v2.792h6.539l2.711,2.711V55h12.623
			l3.044,3.045V72.209z"/>
	</g>
	<g>
		<path d="M135.664,33.812h-13.477v-8.82h-8.719v-5.5l10.117-10.117h13.383V0.594h15.164l9.242,9.242V17.5h-22.531v13.133
			L135.664,33.812z M124.188,31.812h10.648l2.008-2.008V15.5h22.531v-4.836l-8.07-8.07h-12.336v8.781h-14.555l-8.945,8.945v2.672
			h8.719V31.812z"/>
	</g>
	<g>
		<path d="M315.727,149.188h-53.102V143h-1.977l-2.586-2.586V127.75h7.75v-7.062h11.469v7.695l-2.031,2.031v3.617h3.555l2.07-2.07
			v-14.648h8.352l3.961,3.961v14.392h4.25v-14.853h7.625v-7.727l2.688-2.688l9.727,9.727h7.023v10.594h-12.055l-1.945,1.945v4.086
			h7.875v9.789L315.727,149.188z M264.625,147.188h50.273l1.477-1.477v-6.961H308.5v-6.914l3.117-3.117H322.5v-6.594h-5.852
			l-8.898-8.898l-0.688,0.688v8.898h-7.625v14.853h-8.25v-15.563l-2.789-2.789h-5.523v13.477l-3.242,3.242h-6.383v-6.445
			l2.031-2.031v-4.867h-7.469v7.062h-7.75v9.836l1.414,1.414h3.148V147.188z"/>
	</g>
	<g>
		<path d="M324.19,170.473h-6.329l-7.838-7.839v-6.208h6.502l7.665,7.685V170.473z M318.689,168.473h3.501v-3.536l-6.495-6.511
			h-3.672v3.38L318.689,168.473z"/>
	</g>
	<g>
		<path d="M337.72,236.375h-6.22v-13.204l3.201-3.268h6.362v13.128L337.72,236.375z M333.5,234.375h3.392l2.172-2.172v-10.3h-3.522
			l-2.041,2.084V234.375z"/>
	</g>
	<g>
		<path d="M413.063,26.293h-9.833V16.46h9.833V26.293z M405.23,24.293h5.833V18.46h-5.833V24.293z"/>
	</g>
	<g>
		<path d="M347.23,49.961h-7V33.296l9.653-9.668h5.764v7.497l-8.417,8.417V49.961z M342.23,47.961h3v-9.247l8.417-8.417v-4.669
			h-2.934l-8.483,8.496V47.961z"/>
	</g>
	<g>
		<path d="M195.312,84h-4.539l-3.961-3.961V73.25h-8.125V41.572h-8.217l-6.322-6.322h-10.239v-3.005l7.739-7.739h7.382l1.88-1.881
			V7.5h15.527V0h7.539l8.125,8.125h0.711v-7h16.5V7.5h21.414l2.711,2.711V16.5h-13.771v2.107l5.896,5.896v9.31h-8.125V49.75h-9.125
			v7.75h-6.961l-7.375,7.375h-7.125l-1.539,1.539V84z M191.602,82h1.711V65.586l2.711-2.711h7.125l7.375-7.375h5.789v-7.75h9.125
			V31.812h8.125v-6.481l-5.896-5.896V14.5h13.771v-3.461L239.898,9.5h-22.586V3.125h-12.5v7h-3.539L193.148,2h-4.711v7.5H172.91
			v13.953l-3.052,3.053h-7.382l-6.567,6.567v0.177h9.067l6.322,6.322h9.389V71.25h8.125v7.961L191.602,82z"/>
	</g>
	<g>
		<path d="M460.819,187.284h-6.503l-9.729-9.729v-7.403h7.943l8.288,8.287V187.284z M455.145,185.284h3.675v-6.017l-7.116-7.115
			h-5.115v4.575L455.145,185.284z"/>
	</g>
	<g>
		<path d="M442.534,213.594h-6.608l-10.006-10.006v-5.895l2.771-2.771h13.285l0.99-0.99v-8.265h5.444l9.977,9.976v7.179h-15.853
			V213.594z M436.754,211.594h3.78v-10.771h15.853v-4.351l-8.805-8.804h-2.616v7.093l-2.162,2.162h-13.285l-1.599,1.599v4.238
			L436.754,211.594z"/>
	</g>
	<g>
		<path fill="none" stroke="#000000" stroke-width="2" stroke-miterlimit="10" d="M420.479,216.959"/>
	</g>
	<g>
		<path d="M434.312,221.297h-17.904l-7.513-7.507v-9.276h7.776l6.972,6.971h7.858l2.811,2.811V221.297z M417.236,219.297h15.076
			v-4.174l-1.639-1.639h-7.858l-6.972-6.971h-4.948v6.448L417.236,219.297z"/>
	</g>
	<g>
		<path d="M485.489,138.426h-10.707v-6.621l7.625-7.625v-2.211h-7.625V99.055l2.773-2.773h11.852v9.562h-8.125v4.086l2.977,2.977
			h5.148v21.602L485.489,138.426z M476.782,136.426h7.879l2.746-2.746v-18.773h-3.977l-4.148-4.148v-6.914h8.125v-5.562h-9.023
			l-1.602,1.602v20.086h7.625v5.039l-7.625,7.625V136.426z"/>
	</g>
	<g>
		<path d="M254.852,106.441h-10.664v-6.913l5.362-5.375V79.244h4.321l5.066,5.031v18.08L254.852,106.441z M246.188,104.441h7.836
			l2.914-2.914v-16.42l-3.891-3.863h-1.497v13.735l-5.362,5.375V104.441z"/>
	</g>
	<g>
		<path d="M241.852,97.75h-5.789v-5.102l5.923-5.923l3.577,3.749v3.564L241.852,97.75z M238.062,95.75h2.961l2.539-2.539v-1.936
			l-1.61-1.688l-3.89,3.89V95.75z"/>
	</g>
	<g>
		<path d="M228.667,75.686l-5.019-5.019l3.649-3.875h5.349v4.914L228.667,75.686z M226.436,70.626l2.231,2.231l1.979-1.979v-2.086
			h-2.485L226.436,70.626z"/>
	</g>
	<g>
		<path d="M290.562,26.291H277.65l-2.838-2.838v-7.014h13.204l2.546,2.519V26.291z M278.479,24.291h10.084v-4.499l-1.368-1.353
			h-10.382v4.186L278.479,24.291z"/>
	</g>
</g>
</svg>
