<?xml version="1.0" encoding="utf-8"?>
<!-- Generator: Adobe Illustrator 16.0.0, SVG Export Plug-In . SVG Version: 6.00 Build 0)  -->
<!DOCTYPE svg PUBLIC "-//W3C//DTD SVG 1.1//EN" "http://www.w3.org/Graphics/SVG/1.1/DTD/svg11.dtd">
<svg version="1.1" id="Layer_1" xmlns="http://www.w3.org/2000/svg" xmlns:xlink="http://www.w3.org/1999/xlink" x="0px" y="0px"
	 width="114.145px" height="91.075px" viewBox="0 0 114.145 91.075" enable-background="new 0 0 114.145 91.075"
	 xml:space="preserve">
<g>
	<path d="M61.715,75.376c-0.391-0.391-1.023-0.391-1.414,0l-7.572,7.572c-0.391,0.39-0.391,1.023,0,1.414
		c0.195,0.195,0.451,0.293,0.707,0.293s0.512-0.098,0.707-0.293l7.572-7.572C62.105,76.4,62.105,75.767,61.715,75.376z"/>
	<circle cx="60.415" cy="83.068" r="1.558"/>
	<circle cx="54.007" cy="76.59" r="1.558"/>
	<path d="M114.145,70.986l-21.684-20.13h-9.777v-6.021c0-2.128-2.189-3.843-4-3.843c-1.812,0-4,1.714-4,3.843v0.14
		c-2.094-0.646-6.68-2.794-10.084-9.609V21.488c0-13.925-6.52-20.521-6.797-20.795L57.1,0l-0.702,0.693
		C56.12,0.968,49.6,7.563,49.6,21.488v13.877c-3.402,6.815-7.989,8.964-10.083,9.61v-0.14c0-2.128-2.188-3.843-4-3.843
		s-4,1.714-4,3.843v6.021H21.65L0,70.987l0.756,0.756c0.025,0.023,0.045,0.051,0.073,0.072l17.79,17.791L37.428,84.2l20.268,6.823
		c0.104,0.034,0.211,0.052,0.319,0.052c0.111,0,0.224-0.018,0.33-0.056l19-6.64l18.181,5.227L114.145,70.986z M76.684,44.836
		c0-0.981,1.246-1.843,2-1.843c0.753,0,2,0.861,2,1.843v11.522h-4V44.836z M74.684,47.054v5.799L64.6,51.022V39.338
		C68.366,44.896,72.818,46.575,74.684,47.054z M62.6,21.488v28.845c-0.909-0.609-2.859-1.657-5.581-1.657
		c-2.626,0-4.489,0.973-5.419,1.593v-28.78c0-1.562,0.098-3.015,0.252-4.384c0.152-0.04,0.299-0.104,0.424-0.217
		c0.017-0.016,1.752-1.571,4.743-1.571c2.964,0,4.823,1.571,4.837,1.584c0.146,0.127,0.319,0.19,0.496,0.22
		C62.505,18.484,62.6,19.931,62.6,21.488z M52.275,52.247c0.017-0.016,1.752-1.571,4.743-1.571c2.964,0,4.823,1.571,4.837,1.584
		c0.029,0.025,0.064,0.035,0.096,0.057l-2.03,2.536h-5.642l-2.06-2.572C52.236,52.267,52.258,52.262,52.275,52.247z M57.104,2.944
		c1.226,1.573,3.727,5.409,4.884,11.658c-1.052-0.589-2.75-1.286-4.969-1.286c-2.13,0-3.749,0.642-4.79,1.217
		C53.395,8.341,55.885,4.516,57.104,2.944z M49.6,39.338v11.685l-10.083,1.83v-5.799C41.382,46.575,45.834,44.896,49.6,39.338z
		 M33.517,44.836c0-0.981,1.247-1.843,2-1.843s2,0.861,2,1.843v11.522h-4V44.836z M22.436,52.856h9.081v5.502h8v-3.473l10.675-1.939
		l3.127,3.906h7.563l3.126-3.906l10.676,1.939v3.473h8v-5.502h8.992l18.498,17.172H3.969L22.436,52.856z M19.199,87.358
		L5.188,73.345l28.906,9.732L19.199,87.358z M58.009,89.019L7.545,72.028h99.082L58.009,89.019z M80.611,83.238l28.365-9.912
		L94.945,87.358L80.611,83.238z"/>
	<path d="M57.211,18.572c-2.389,0-4.334,1.944-4.334,4.333c0,2.389,1.945,4.333,4.334,4.333c2.39,0,4.334-1.944,4.334-4.333
		C61.545,20.516,59.601,18.572,57.211,18.572z M57.211,25.239c-1.287,0-2.334-1.046-2.334-2.333s1.047-2.333,2.334-2.333
		s2.334,1.047,2.334,2.333S58.498,25.239,57.211,25.239z"/>
	<path d="M58.354,34.572h-2.67c-0.553,0-1,0.448-1,1s0.447,1,1,1h2.67c0.553,0,1-0.448,1-1S58.906,34.572,58.354,34.572z"/>
	<path d="M58.354,38.905h-2.67c-0.553,0-1,0.448-1,1s0.447,1,1,1h2.67c0.553,0,1-0.448,1-1S58.906,38.905,58.354,38.905z"/>
	<path d="M58.354,30.239h-2.67c-0.553,0-1,0.448-1,1s0.447,1,1,1h2.67c0.553,0,1-0.448,1-1S58.906,30.239,58.354,30.239z"/>
	<path d="M58.354,43.239h-2.67c-0.553,0-1,0.448-1,1s0.447,1,1,1h2.67c0.553,0,1-0.448,1-1S58.906,43.239,58.354,43.239z"/>
	<path d="M55.434,67.697c0.553,0,1-0.448,1-1v-7.091c0-0.553-0.447-1-1-1s-1,0.447-1,1v7.091
		C54.434,67.249,54.881,67.697,55.434,67.697z"/>
	<path d="M59.269,64.952c0.552,0,1-0.447,1-1v-4.346c0-0.553-0.448-1-1-1s-1,0.447-1,1v4.346
		C58.269,64.505,58.717,64.952,59.269,64.952z"/>
	<path d="M33.517,66.119c0.552,0,1-0.448,1-1v-4.346c0-0.552-0.448-1-1-1s-1,0.448-1,1v4.346
		C32.517,65.671,32.965,66.119,33.517,66.119z"/>
	<path d="M36.934,66.119c0.552,0,1-0.448,1-1v-4.346c0-0.552-0.448-1-1-1c-0.553,0-1,0.448-1,1v4.346
		C35.934,65.671,36.381,66.119,36.934,66.119z"/>
	<path d="M76.975,66.119c0.553,0,1-0.448,1-1v-4.346c0-0.552-0.447-1-1-1c-0.552,0-1,0.448-1,1v4.346
		C75.975,65.671,76.423,66.119,76.975,66.119z"/>
	<path d="M80.392,66.119c0.552,0,1-0.448,1-1v-4.346c0-0.552-0.448-1-1-1s-1,0.448-1,1v4.346
		C79.392,65.671,79.84,66.119,80.392,66.119z"/>
</g>
</svg>
