<?xml version="1.0" encoding="utf-8"?>
<!-- Generator: Adobe Illustrator 16.0.0, SVG Export Plug-In . SVG Version: 6.00 Build 0)  -->
<!DOCTYPE svg PUBLIC "-//W3C//DTD SVG 1.1//EN" "http://www.w3.org/Graphics/SVG/1.1/DTD/svg11.dtd">
<svg version="1.1" id="Layer_1" xmlns="http://www.w3.org/2000/svg" xmlns:xlink="http://www.w3.org/1999/xlink" x="0px" y="0px"
	 width="114.178px" height="101.418px" viewBox="0 0 114.178 101.418" enable-background="new 0 0 114.178 101.418"
	 xml:space="preserve">
<g>
	<path fill="#191919" d="M61.731,85.719c-0.391-0.391-1.022-0.391-1.414,0l-7.571,7.571c-0.392,0.39-0.392,1.022,0,1.414
		c0.194,0.194,0.45,0.293,0.707,0.293c0.256,0,0.512-0.099,0.707-0.293l7.571-7.571C62.122,86.742,62.122,86.109,61.731,85.719z"/>
	<circle fill="#191919" cx="60.431" cy="93.411" r="1.558"/>
	<circle fill="#191919" cx="54.022" cy="86.933" r="1.558"/>
	<path fill="#191919" d="M114.161,81.328L93.633,62.271H82.699v-7.094c0-2.128-2.188-3.843-4-3.843c-1.812,0-4,1.714-4,3.843v0.135
		c-2.096-0.664-6.705-2.842-10.083-9.605V31.831c0-13.925-6.521-20.521-6.799-20.795l-0.701-0.693l-0.702,0.693
		c-0.278,0.274-6.798,6.87-6.798,20.795v13.877c-3.403,6.815-7.99,8.964-10.084,9.61V55.18c0-2.129-2.188-3.844-4-3.844
		c-1.812,0-4,1.714-4,3.844v7.09H20.514L0.017,81.329l0.754,0.754c0.025,0.024,0.047,0.054,0.075,0.075l17.789,17.789l18.809-5.405
		l20.269,6.823c0.104,0.035,0.212,0.053,0.318,0.053c0.111,0,0.224-0.02,0.33-0.057l19-6.639l18.182,5.225L114.161,81.328z
		 M76.699,55.178c0-0.98,1.245-1.843,2-1.843c0.754,0,2,0.86,2,1.843v11.523h-4V55.178z M74.699,57.396v5.799l-10.083-1.832V49.681
		C68.383,55.238,72.834,56.918,74.699,57.396z M62.616,31.831v28.844c-0.909-0.608-2.86-1.657-5.582-1.657
		c-2.626,0-4.488,0.973-5.418,1.594v-28.78c0-1.562,0.097-3.015,0.252-4.384c0.151-0.04,0.299-0.104,0.423-0.217
		c0.018-0.016,1.752-1.571,4.743-1.571c2.965,0,4.822,1.571,4.838,1.583c0.145,0.128,0.317,0.19,0.496,0.22
		C62.521,28.826,62.616,30.273,62.616,31.831z M52.291,62.589c0.018-0.017,1.752-1.571,4.743-1.571c2.965,0,4.822,1.572,4.838,1.584
		c0.027,0.025,0.063,0.035,0.095,0.058l-2.03,2.536h-5.641l-2.061-2.572C52.253,62.607,52.274,62.604,52.291,62.589z M57.119,13.287
		c1.227,1.573,3.728,5.409,4.885,11.659c-1.052-0.589-2.75-1.287-4.97-1.287c-2.13,0-3.749,0.642-4.789,1.217
		C53.411,18.684,55.9,14.858,57.119,13.287z M49.616,49.68v11.685l-10.084,1.83v-5.799C41.397,56.918,45.85,55.238,49.616,49.68z
		 M33.532,55.178c0-0.98,1.245-1.843,2-1.843c0.754,0,2,0.86,2,1.843v11.523h-4V55.178z M21.301,64.27h10.231v4.433h8v-3.474
		l10.676-1.938l3.127,3.905h7.562l3.127-3.905l10.676,1.938v3.474h8v-4.431h10.147l17.342,16.101H3.984L21.301,64.27z M19.215,97.7
		L5.203,83.688l28.905,9.732L19.215,97.7z M58.024,99.361L7.562,82.371h99.082L58.024,99.361z M80.628,93.58l28.364-9.911
		L94.961,97.7L80.628,93.58z"/>
	<path fill="#191919" d="M57.228,28.915c-2.39,0-4.334,1.944-4.334,4.333s1.944,4.333,4.334,4.333c2.391,0,4.333-1.944,4.333-4.333
		C61.561,30.858,59.617,28.915,57.228,28.915z M57.228,35.581c-1.287,0-2.334-1.046-2.334-2.333s1.047-2.333,2.334-2.333
		c1.286,0,2.333,1.047,2.333,2.333S58.514,35.581,57.228,35.581z"/>
	<path fill="#191919" d="M58.37,44.915H55.7c-0.554,0-1,0.448-1,1c0,0.552,0.446,1,1,1h2.67c0.553,0,1-0.448,1-1
		C59.37,45.363,58.923,44.915,58.37,44.915z"/>
	<path fill="#191919" d="M58.37,49.248H55.7c-0.554,0-1,0.448-1,1c0,0.552,0.446,1,1,1h2.67c0.553,0,1-0.448,1-1
		C59.37,49.696,58.923,49.248,58.37,49.248z"/>
	<path fill="#191919" d="M58.37,40.581H55.7c-0.554,0-1,0.448-1,1c0,0.552,0.446,1,1,1h2.67c0.553,0,1-0.448,1-1
		C59.37,41.029,58.923,40.581,58.37,40.581z"/>
	<path fill="#191919" d="M58.37,53.581H55.7c-0.554,0-1,0.448-1,1s0.446,1,1,1h2.67c0.553,0,1-0.448,1-1S58.923,53.581,58.37,53.581
		z"/>
	<path fill="#191919" d="M55.45,78.039c0.553,0,1-0.447,1-1v-7.09c0-0.553-0.447-1-1-1c-0.554,0-1,0.447-1,1v7.09
		C54.45,77.592,54.897,78.039,55.45,78.039z"/>
	<path fill="#191919" d="M59.284,75.295c0.553,0,1-0.447,1-1v-4.346c0-0.553-0.447-1-1-1c-0.554,0-1,0.447-1,1v4.346
		C58.284,74.848,58.731,75.295,59.284,75.295z"/>
	<path fill="#191919" d="M33.532,76.461c0.553,0,1-0.447,1-1v-4.346c0-0.553-0.447-1-1-1c-0.554,0-1,0.447-1,1v4.346
		C32.532,76.014,32.979,76.461,33.532,76.461z"/>
	<path fill="#191919" d="M36.949,76.461c0.553,0,1-0.447,1-1v-4.346c0-0.553-0.447-1-1-1c-0.554,0-1,0.447-1,1v4.346
		C35.949,76.014,36.396,76.461,36.949,76.461z"/>
	<path fill="#191919" d="M76.866,76.461c0.553,0,1-0.447,1-1v-4.346c0-0.553-0.447-1-1-1c-0.555,0-1,0.447-1,1v4.346
		C75.866,76.014,76.312,76.461,76.866,76.461z"/>
	<path fill="#191919" d="M80.282,76.461c0.553,0,1-0.447,1-1v-4.346c0-0.553-0.447-1-1-1s-1,0.447-1,1v4.346
		C79.282,76.014,79.73,76.461,80.282,76.461z"/>
</g>
</svg>
