<?xml version="1.0" encoding="utf-8"?>
<!-- Generator: Adobe Illustrator 16.0.0, SVG Export Plug-In . SVG Version: 6.00 Build 0)  -->
<!DOCTYPE svg PUBLIC "-//W3C//DTD SVG 1.1//EN" "http://www.w3.org/Graphics/SVG/1.1/DTD/svg11.dtd">
<svg version="1.1" id="Layer_1" xmlns="http://www.w3.org/2000/svg" xmlns:xlink="http://www.w3.org/1999/xlink" x="0px" y="0px"
	 width="80px" height="80px" viewBox="-4.764 -9.044 80 80" enable-background="new -4.764 -9.044 80 80" xml:space="preserve">
<g>
	<path fill="#FFFFFF" d="M71.486,8.003h-63c-0.553,0-1,0.447-1,1v3.5h-3.5c-0.553,0-1,0.447-1,1v3.5h-3.5c-0.553,0-1,0.447-1,1v36
		c0,0.553,0.447,1,1,1h63c0.553,0,1-0.447,1-1v-3.5h3.5c0.553,0,1-0.447,1-1v-3.5h3.5c0.553,0,1-0.447,1-1v-36
		C72.486,8.45,72.038,8.003,71.486,8.003z M61.486,53.003h-61v-34h2.5v30.5c0,0.553,0.447,1,1,1h57.5V53.003z M65.986,48.503h-3.5
		h-57.5v-30.5v-3.5h2.5v30.5c0,0.553,0.447,1,1,1h57.5V48.503z M70.486,44.003h-3.5h-57.5v-30.5v-3.5h61V44.003z"/>
	<path fill="#FFFFFF" d="M12.986,41.503h18c0.553,0,1-0.447,1-1s-0.447-1-1-1H18.39c-0.412-2.231-2.173-3.992-4.404-4.404V18.907
		c2.231-0.412,3.992-2.173,4.404-4.404h12.596c0.553,0,1-0.447,1-1s-0.447-1-1-1h-18c-0.553,0-1,0.447-1,1v27
		C11.986,41.056,12.433,41.503,12.986,41.503z M16.323,39.503h-2.337v-2.337C15.108,37.504,15.985,38.381,16.323,39.503z
		 M13.986,14.503h2.337c-0.338,1.122-1.215,1.999-2.337,2.337V14.503z"/>
	<path fill="#FFFFFF" d="M61.581,39.503H48.986c-0.553,0-1,0.447-1,1s0.447,1,1,1h18c0.553,0,1-0.447,1-1v-27c0-0.553-0.447-1-1-1
		h-18c-0.553,0-1,0.447-1,1s0.447,1,1,1h12.596c0.412,2.231,2.173,3.992,4.404,4.404v16.191
		C63.754,35.511,61.993,37.271,61.581,39.503z M65.986,39.503h-2.337c0.338-1.122,1.215-1.999,2.337-2.337V39.503z M63.649,14.503
		h2.337v2.337C64.864,16.502,63.987,15.625,63.649,14.503z"/>
	<path fill="#FFFFFF" d="M36.486,31.503c0-0.553-0.447-1-1-1s-1,0.447-1,1c0,2.69,1.944,4.932,4.5,5.404v3.596c0,0.553,0.447,1,1,1
		s1-0.447,1-1v-3.596c2.556-0.473,4.5-2.714,4.5-5.404s-1.944-4.932-4.5-5.404v-6.933c1.44,0.434,2.5,1.757,2.5,3.337
		c0,0.553,0.447,1,1,1s1-0.447,1-1c0-2.69-1.944-4.932-4.5-5.404v-3.596c0-0.553-0.447-1-1-1s-1,0.447-1,1v3.596
		c-2.556,0.473-4.5,2.714-4.5,5.404s1.944,4.932,4.5,5.404v6.933C37.545,34.406,36.486,33.083,36.486,31.503z M43.486,31.503
		c0,1.58-1.06,2.903-2.5,3.337v-6.674C42.426,28.6,43.486,29.923,43.486,31.503z M36.486,22.503c0-1.58,1.06-2.903,2.5-3.337v6.674
		C37.545,25.406,36.486,24.083,36.486,22.503z"/>
</g>
</svg>
