<?xml version="1.0" encoding="utf-8"?>
<!-- Generator: Adobe Illustrator 16.0.0, SVG Export Plug-In . SVG Version: 6.00 Build 0)  -->
<!DOCTYPE svg PUBLIC "-//W3C//DTD SVG 1.1//EN" "http://www.w3.org/Graphics/SVG/1.1/DTD/svg11.dtd">
<svg version="1.1" id="Layer_1" xmlns="http://www.w3.org/2000/svg" xmlns:xlink="http://www.w3.org/1999/xlink" x="0px" y="0px"
	 width="80px" height="80px" viewBox="-3 -7.5 80 80" enable-background="new -3 -7.5 80 80" xml:space="preserve">
<g>
	<path fill="#FFFFFF" d="M74,19c0-0.553-0.447-1-1-1s-1,0.447-1,1c0,1.58-1.061,2.903-2.5,3.337V14.5c0-0.553-0.447-1-1-1
		s-1,0.447-1,1v7.837C66.061,21.903,65,20.58,65,19c0-0.553-0.447-1-1-1s-1,0.447-1,1c0,2.69,1.943,4.932,4.5,5.404v6.933
		C66.061,30.903,65,29.58,65,28c0-0.553-0.447-1-1-1s-1,0.447-1,1c0,2.69,1.943,4.932,4.5,5.404v6.933C66.061,39.902,65,38.58,65,37
		c0-0.553-0.447-1-1-1s-1,0.447-1,1c0,2.689,1.943,4.932,4.5,5.404V63H55.125V47h3.5c0.294,0,0.572-0.129,0.764-0.354
		c0.189-0.226,0.271-0.521,0.223-0.812l-4.5-27C55.031,18.354,54.613,18,54.125,18s-0.906,0.354-0.986,0.836l-4.5,27
		c-0.049,0.29,0.033,0.586,0.225,0.811C49.053,46.871,49.331,47,49.625,47h3.5v16H39.666V33.404c2.557-0.473,4.5-2.714,4.5-5.404
		s-1.943-4.932-4.5-5.404V19.95c5.046-0.504,9-4.773,9-9.949c0-5.514-4.486-10-10-10c-5.514,0-10,4.486-10,10
		c0,5.176,3.954,9.445,9,9.949v2.646c-2.556,0.473-4.5,2.714-4.5,5.404s1.944,4.932,4.5,5.404V63H24.209V51.5h3.5
		c0.308,0,0.599-0.143,0.788-0.385s0.257-0.559,0.182-0.857l-4.5-18c-0.111-0.445-0.511-0.758-0.97-0.758s-0.858,0.312-0.97,0.758
		l-4.5,18c-0.075,0.299-0.008,0.615,0.182,0.857c0.189,0.242,0.48,0.385,0.788,0.385h3.5V63H11V37.928
		c3.802-0.492,6.75-3.744,6.75-7.678c0-4.273-3.477-7.75-7.75-7.75s-7.75,3.477-7.75,7.75c0,3.934,2.948,7.186,6.75,7.678V63H1
		c-0.553,0-1,0.447-1,1s0.447,1,1,1h67.5H73c0.553,0,1-0.447,1-1s-0.447-1-1-1h-3.5V42.404C72.057,41.932,74,39.689,74,37
		c0-0.553-0.447-1-1-1s-1,0.447-1,1c0,1.58-1.061,2.902-2.5,3.337v-6.933C72.057,32.932,74,30.69,74,28c0-0.553-0.447-1-1-1
		s-1,0.447-1,1c0,1.58-1.061,2.903-2.5,3.337v-6.933C72.057,23.932,74,21.69,74,19z M10,24.5c3.171,0,5.75,2.579,5.75,5.75
		S13.171,36,10,36s-5.75-2.579-5.75-5.75S6.829,24.5,10,24.5z M23.209,36.623L26.428,49.5H19.99L23.209,36.623z M38.666,24.5
		c1.93,0,3.5,1.57,3.5,3.5s-1.57,3.5-3.5,3.5c-1.93,0-3.5-1.57-3.5-3.5S36.736,24.5,38.666,24.5z M38.666,2c4.411,0,8,3.589,8,8
		s-3.589,8-8,8s-8-3.589-8-8S34.255,2,38.666,2z M54.125,25.083L57.443,45h-6.639L54.125,25.083z"/>
</g>
</svg>
