<?xml version="1.0" encoding="utf-8"?>
<!-- Generator: Adobe Illustrator 16.0.0, SVG Export Plug-In . SVG Version: 6.00 Build 0)  -->
<!DOCTYPE svg PUBLIC "-//W3C//DTD SVG 1.1//EN" "http://www.w3.org/Graphics/SVG/1.1/DTD/svg11.dtd">
<svg version="1.1" id="Layer_1" xmlns="http://www.w3.org/2000/svg" xmlns:xlink="http://www.w3.org/1999/xlink" x="0px" y="0px"
	 width="148.859px" height="160.666px" viewBox="0 0 148.859 160.666" enable-background="new 0 0 148.859 160.666"
	 xml:space="preserve">
<g>
	<g>
		<path fill="#F89B1C" d="M142.857,20.417H6c-3.31,0-6,2.691-6,6v84.667c0,3.31,2.69,6,6,6h63.687v1.582h-3.5
			c-2.689,0-4.933,1.944-5.403,4.5H29.186c-0.554,0-1,0.446-1,1v4.5c0,0.554,0.446,1,1,1h3.5v11.5h-3.5c-0.554,0-1,0.446-1,1v4.5
			c0,0.554,0.446,1,1,1h3.5v8c0,0.554,0.446,1,1,1h4.5c0.379,0,0.726-0.213,0.896-0.554l4.225-8.446h63.764l4.225,8.446
			c0.17,0.341,0.517,0.554,0.896,0.554h4.5c0.554,0,1-0.446,1-1v-8h3.5c0.554,0,1-0.446,1-1v-4.5c0-0.554-0.446-1-1-1h-3.5v-11.5
			h3.5c0.554,0,1-0.446,1-1v-4.5c0-0.554-0.446-1-1-1H89.592c-0.473-2.556-2.714-4.5-5.403-4.5h-3.5v-1.582h62.171
			c3.31,0,6-2.69,6-6V26.417C148.857,23.108,146.167,20.417,142.857,20.417z M37.568,154.666h-2.882v-7h6.382L37.568,154.666z
			 M115.686,154.666h-2.882l-3.5-7h6.382V154.666z M120.186,143.166v2.5h-90v-2.5H120.186z M34.686,141.166v-11.5h39.5v11.5H34.686z
			 M76.186,141.166v-11.5h39.5v11.5H76.186z M120.186,125.166v2.5h-90v-2.5H120.186z M84.186,120.666c1.58,0,2.902,1.062,3.337,2.5
			H62.849c0.435-1.438,1.757-2.5,3.337-2.5H84.186z M78.686,118.666h-7v-1.582h7V118.666z M146.857,111.083c0,2.207-1.795,4-4,4H6
			c-2.206,0-4-1.793-4-4V26.417c0-2.206,1.794-4,4-4h136.857c2.205,0,4,1.794,4,4V111.083z"/>
		<g>
			<g>
				<path fill="#F89B1C" d="M70.686,132.166h-32.5c-0.554,0-1,0.446-1,1v4.5c0,0.554,0.446,1,1,1h32.5c0.554,0,1-0.446,1-1v-4.5
					C71.686,132.612,71.24,132.166,70.686,132.166z M69.686,136.666h-30.5v-2.5h30.5V136.666z M79.686,132.166c-0.554,0-1,0.446-1,1
					v4.5c0,0.554,0.446,1,1,1s1-0.446,1-1v-4.5C80.686,132.612,80.24,132.166,79.686,132.166z M84.186,132.166c-0.554,0-1,0.446-1,1
					v4.5c0,0.554,0.446,1,1,1s1-0.446,1-1v-4.5C85.186,132.612,84.74,132.166,84.186,132.166z M88.686,132.166c-0.554,0-1,0.446-1,1
					v4.5c0,0.554,0.446,1,1,1s1-0.446,1-1v-4.5C89.686,132.612,89.24,132.166,88.686,132.166z M112.186,132.166h-19
					c-0.554,0-1,0.446-1,1v4.5c0,0.554,0.446,1,1,1h19c0.554,0,1-0.446,1-1v-4.5C113.186,132.612,112.74,132.166,112.186,132.166z
					 M111.186,136.666h-17v-2.5h17V136.666z"/>
			</g>
		</g>
	</g>
	<g>
		<path fill="#F89B1C" d="M36.019,3.854c-0.222-0.939-0.642-1.728-1.234-2.372c-0.347-0.37-0.89-0.37-1.234-0.05
			c-0.372,0.322-0.396,0.89-0.05,1.234c0.766,0.841,1.087,2.125,0.913,3.856c-0.172,1.605-0.767,3.507-1.729,5.433
			c-1.037,2.051-2.421,4.003-3.829,5.384c-1.357,1.335-2.644,2.027-3.558,1.93h-0.074c-0.024-0.076-0.173-0.472,0.222-1.902
			c0.321-1.137,0.865-2.57,1.458-4.078c0.347-0.889,0.717-1.829,1.038-2.74c0.025-0.051,0.025-0.1,0.051-0.125
			c0.173-0.518-0.149-0.963-0.521-1.112c-0.444-0.171-0.914,0.026-1.111,0.471c0,0-0.024,0.024-0.024,0.049
			c0,0.024-0.024,0.05-0.048,0.099l-0.125,0.345c-0.172,0.447-0.443,1.137-0.593,1.458c-1.53,3.481-3.358,5.361-4.595,6.323
			c-1.458,1.113-2.545,1.359-2.742,1.359c-0.321-0.024-0.371-0.099-0.396-0.124c-0.074-0.099-0.37-0.718,0.445-3.038
			c0.072-0.246,0.172-0.518,0.271-0.79c1.358-3.856,2.889-8.251,2.224-11.39c-0.347-1.653-1.062-2.766-2.101-3.261
			c-0.914-0.445-2.026-0.371-3.211,0.223C14.798,1.382,14.181,2,13.686,2.816c-0.494,0.839-0.766,1.752-0.741,2.591
			c0.025,1.26,0.667,2.225,1.805,2.768c0.443,0.198,0.963,0,1.162-0.445c0.196-0.445,0.023-0.963-0.421-1.16
			c-0.519-0.249-0.79-0.617-0.79-1.187c-0.025-1.11,0.84-2.421,1.557-2.766c0.469-0.248,1.135-0.469,1.679-0.222
			c0.495,0.248,0.891,0.962,1.138,2.05c0.566,2.667-0.892,6.794-2.175,10.45c-0.098,0.274-0.196,0.518-0.271,0.791
			c-0.791,2.224-0.864,3.68-0.247,4.596c0.371,0.542,0.963,0.84,1.779,0.889h0.049c0.617,0,2.024-0.347,3.755-1.657
			c0.519-0.395,1.038-0.864,1.531-1.358c-0.148,0.889-0.05,1.531,0.248,2.025c0.196,0.347,0.616,0.742,1.358,0.84
			c0.123,0,0.246,0.027,0.371,0.027c1.382,0,2.963-0.84,4.619-2.474c1.558-1.504,3.015-3.58,4.15-5.828
			c1.062-2.125,1.729-4.226,1.901-6.052C36.266,5.654,36.218,4.692,36.019,3.854z"/>
		<path fill="#F89B1C" d="M73.193,13.958c-0.419-0.246-0.962-0.124-1.209,0.271c-0.025,0-0.617,0.962-1.458,1.926
			c-1.436,1.631-2.176,1.755-2.373,1.755c-0.222,0-0.32-0.05-0.37-0.05c0-0.05-0.024-0.248,0.075-0.643
			c0.073-0.419,0.271-0.938,0.442-1.457c0.496-1.384,0.99-2.814,0.298-3.804c-0.395-0.543-1.038-0.815-1.902-0.815
			c-1.11,0-2.197,0.741-3.311,2.271c-0.74,1.014-1.382,2.225-1.875,3.213c0.036-0.41,0.092-0.854,0.163-1.33
			c0.004-0.021,0.009-0.045,0.011-0.067c0.069-0.451,0.151-0.928,0.244-1.419c0.076-0.323,0.149-0.643,0.248-0.965
			c1.679-0.496,3.113-1.481,4.25-2.915c0.888-1.111,1.631-2.495,2.148-4.125c0.369-1.063,0.518-2.026,0.495-2.817
			c-0.075-1.211-0.568-1.728-1.013-1.951c-0.272-0.124-0.89-0.321-1.657,0.149c-0.42,0.27-0.863,0.714-1.283,1.307
			c-0.938,1.334-1.978,3.188-2.842,5.065c-0.69,1.482-1.581,3.706-2.05,5.879c-0.104,0.484-0.188,0.949-0.261,1.401
			c-1.092,2.536-2.875,3.986-4.851,3.986c-0.422,0-1.014-0.297-1.334-0.965c-0.595-1.16-0.05-2.988,1.433-4.965
			c0.938-1.235,1.754-1.557,2.199-1.434c0.295,0.074,0.468,0.372,0.493,0.619c0.024,0.196-0.024,0.567-0.543,0.838
			c-0.421,0.225-0.593,0.769-0.37,1.188c0.247,0.419,0.766,0.591,1.186,0.371c0.518-0.271,0.938-0.667,1.185-1.137
			c0.247-0.445,0.348-0.938,0.298-1.458c-0.074-0.469-0.248-0.913-0.545-1.31c-0.32-0.394-0.766-0.666-1.235-0.789
			c-0.641-0.197-1.358-0.1-2.05,0.247c-0.691,0.346-1.358,0.964-2,1.803c-0.739,0.966-1.227,1.839-1.542,2.624
			c-0.075,0.074-0.142,0.162-0.188,0.267c-0.791,1.826-2.89,3.607-4.396,3.729c-0.643,0.05-0.914-0.245-1.062-0.493
			c-0.098-0.149-0.322-0.693-0.049-2.151c0.022-0.125,0.056-0.268,0.083-0.401c0.042-0.103,0.063-0.205,0.065-0.312
			c0.2-0.86,0.51-1.843,0.913-2.914h0.444c2.347,0,3.681-0.101,3.829-0.101c0.47-0.051,0.814-0.472,0.791-0.962
			c-0.05-0.472-0.469-0.842-0.964-0.793L49.086,10.4c0.667-1.113,1.68-2.841,2.644-4.347c0.223-0.347,0.346-0.645,0.419-0.89
			c0.198-0.742-0.247-1.113-0.395-1.212c-0.815-0.569-1.902,0.273-2.421,0.94c-0.644,0.838-1.828,3.063-2.841,5.483
			c-0.644,0.049-1.408-0.125-1.558,0.865c-0.05,0.494,0.148,0.766,0.643,0.813c0.074,0.027,0.173,0.027,0.248,0.027
			c-0.371,1.014-0.646,1.933-0.832,2.761c-1.228,2.28-2.409,3.391-3.615,3.391c-0.147,0-0.247,0-0.271-0.024
			c-0.024-0.074-0.024-0.274,0.1-0.768c0.074-0.248,0.197-0.519,0.295-0.792c0.248-0.271,0.421-0.468,0.52-0.616
			c0.79-1.014,1.014-1.656,0.766-2.199c-0.123-0.199-0.295-0.347-0.494-0.444c0.42,0.023,0.814-0.272,0.889-0.692
			c0.199-0.963-0.124-1.779-0.864-2.248c-1.136-0.717-2.988-0.444-4.497,0.641c-0.89,0.643-1.877,1.656-2.667,2.694
			c-0.667,0.913-1.507,2.248-1.63,3.555c-0.1,0.817,0.147,1.534,0.643,2.077c0.494,0.543,1.161,0.817,1.878,0.817h0.123
			c1.111-0.052,2.248-0.719,3.261-1.531c0.048,0.171,0.124,0.344,0.197,0.492c0.248,0.371,0.742,0.792,1.754,0.792
			c0.989,0,1.952-0.371,2.815-1.161c0.222-0.195,0.44-0.415,0.659-0.662c0.073,0.274,0.172,0.519,0.305,0.736
			c0.52,0.839,1.384,1.31,2.396,1.31h0.271c1.062-0.076,2.271-0.644,3.409-1.58c0.251-0.21,0.492-0.431,0.722-0.664
			c0.076,0.269,0.169,0.497,0.267,0.686c0.298,0.592,0.717,1.087,1.26,1.432c0.493,0.325,1.086,0.495,1.632,0.495
			c1.357,0,2.668-0.469,3.804-1.383c0.301-0.241,0.586-0.509,0.855-0.805c0.087,0.609,0.261,0.903,0.403,1.077
			c0.223,0.298,0.544,0.445,0.913,0.445c0.619,0,0.94-0.568,1.138-0.888c0.197-0.321,0.396-0.743,0.643-1.213
			c0.543-1.036,1.186-2.345,1.95-3.384c0.964-1.333,1.581-1.531,1.878-1.531c0.32,0,0.444,0.051,0.47,0.076
			c0,0.022,0.075,0.173-0.025,0.641c-0.099,0.47-0.295,1.012-0.495,1.558c-0.195,0.617-0.418,1.233-0.543,1.802
			c-0.146,0.814-0.073,1.433,0.248,1.902c0.371,0.519,0.989,0.792,1.804,0.792c1.087,0,2.297-0.767,3.681-2.348
			c0.938-1.063,1.581-2.103,1.632-2.148C73.714,14.772,73.59,14.228,73.193,13.958z M66.55,3.507
			c0.321-0.469,0.567-0.667,0.717-0.789c0.025,0.122,0.048,0.32,0.048,0.59c0,0.372-0.098,1.016-0.394,1.952
			c-0.89,2.643-2.248,4.447-4.052,5.411C63.882,7.955,65.339,5.211,66.55,3.507z M40.341,14.97l-0.149,0.321
			c-0.073,0.148-0.123,0.272-0.196,0.418c-1.286,1.433-2.868,2.719-3.903,2.768c-0.272,0.024-0.47-0.049-0.643-0.247
			c-0.1-0.125-0.223-0.298-0.197-0.741c0.147-1.556,2.198-3.953,3.605-4.966c0.718-0.518,1.434-0.716,1.952-0.716
			c0.246,0,0.42,0.048,0.544,0.123c0.073,0.024,0.172,0.098,0.1,0.418c-0.075,0.422,0.172,0.841,0.543,0.99h-0.074
			c-0.371,0-0.691,0.198-1.013,0.618C40.71,14.206,40.512,14.575,40.341,14.97z"/>
		<path fill="#F89B1C" d="M94.875,2.791c-0.445-0.989-1.136-1.384-1.655-1.556c-0.47-0.149-0.964,0.125-1.088,0.567
			c-0.149,0.469,0.1,0.963,0.567,1.112c0.224,0.074,0.422,0.271,0.568,0.617c0.321,0.693,0.814,2.94-1.604,8.449
			c-1.532,3.484-3.359,5.359-4.596,6.323c-1.458,1.113-2.544,1.362-2.741,1.362c-0.321-0.028-0.37-0.101-0.396-0.125
			c-0.074-0.1-0.372-0.716,0.444-3.038c0.073-0.248,0.173-0.52,0.271-0.792c1.358-3.854,2.891-8.251,2.224-11.386
			c-0.348-1.658-1.063-2.769-2.101-3.262c-0.913-0.444-2.024-0.37-3.212,0.22c-0.667,0.347-1.285,0.964-1.776,1.78
			c-0.495,0.84-0.767,1.754-0.742,2.592c0.023,1.262,0.667,2.227,1.804,2.769c0.444,0.199,0.964,0,1.161-0.443
			c0.197-0.446,0.024-0.963-0.42-1.162c-0.519-0.247-0.79-0.618-0.79-1.186c-0.025-1.111,0.84-2.421,1.556-2.768
			c0.469-0.247,1.137-0.469,1.68-0.221c0.495,0.247,0.891,0.962,1.138,2.048c0.567,2.67-0.891,6.795-2.175,10.451
			c-0.099,0.271-0.197,0.52-0.271,0.792c-0.789,2.222-0.864,3.679-0.246,4.594c0.37,0.543,0.963,0.839,1.778,0.888h0.049
			c0.618,0,2.025-0.345,3.756-1.653c0.938-0.718,1.828-1.607,2.645-2.669c0.963-1.26,1.827-2.743,2.567-4.397
			C95.219,8.226,95.79,4.791,94.875,2.791z"/>
		<path fill="#F89B1C" d="M98.315,7.83c0.148,0.1,0.322,0.15,0.494,0.15c0.297,0,0.569-0.125,0.742-0.373l0.023-0.049l0.1-0.148
			c0.271-0.393,0.173-0.938-0.223-1.21c-0.396-0.272-0.939-0.173-1.234,0.224l-0.074,0.122l-0.05,0.05
			c-0.099,0.173-0.148,0.345-0.148,0.518C97.945,7.386,98.068,7.657,98.315,7.83z"/>
		<path fill="#F89B1C" d="M129.047,14.206c-0.396-0.298-0.938-0.248-1.235,0.124c-0.469,0.615-1.013,1.011-1.604,1.184
			c0.074-0.123,0.123-0.248,0.173-0.37c0.471-1.087,0.643-2.224,0.471-3.187c-0.199-1.086-0.815-1.878-1.656-2.173
			c-0.543-0.173-1.604-0.296-2.938,0.913c-0.469,0.396-0.79,0.866-0.989,1.385c-0.247-0.027-0.468,0.073-0.642,0.247
			c-0.815,0.776-1.467,1.711-1.883,2.696c-1.16,2.407-3.453,3.307-4.762,3.307c-0.669,0-1.532-0.297-1.854-0.914
			c-0.104-0.184-0.15-0.404-0.151-0.64c0.036-0.059,0.071-0.112,0.109-0.172c5.19-0.998,6.394-3.076,6.637-4.255
			c0.1-0.493,0.075-0.986-0.099-1.405c-0.147-0.446-0.42-0.816-0.79-1.063c-0.224-0.148-1.112-0.643-2.446-0.248
			c-1.185,0.372-2.321,1.311-3.409,2.816c-0.863,1.185-1.408,2.297-1.63,3.26c-0.039,0.167-0.063,0.328-0.086,0.488
			c-1.058,1.55-1.799,1.712-2.507,1.712c-0.123,0-0.123-0.025-0.148-0.05c-0.125-0.172-0.567-1.311,1.235-6.225
			c1.384-2.57,2.568-5.188,3.261-6.719c0.297-0.592,0.494-1.089,0.617-1.31c0.224-0.421,0.371-0.79,0.47-1.088
			c0.124-0.347,0.197-0.792-0.049-1.186c-0.197-0.271-0.519-0.445-0.866-0.396c-0.468,0.026-0.765,0.396-0.938,0.666
			c-0.174,0.248-0.347,0.568-0.521,0.963l-0.32,0.695c-0.617,1.332-1.828,3.924-2.891,6.645c-0.024,0-0.05-0.025-0.074-0.051
			c-1.136-0.715-3.111-0.395-4.693,0.766c-1.275,0.923-3.014,2.967-3.715,4.919c-0.66,1.227-1.604,2.344-2.831,2.344
			c-0.224,0-0.74-0.049-0.939-0.419c-0.172-0.346-0.518-1.829,2.62-6.251c0.271-0.396,0.197-0.939-0.197-1.209
			c-0.396-0.298-0.965-0.199-1.235,0.196c-2.691,3.805-3.583,6.447-2.741,8.054c0.271,0.521,0.69,0.89,1.209,1.137
			c0.495,0.199,0.965,0.245,1.285,0.245c0.964,0,1.878-0.368,2.692-1.062c0.04-0.034,0.08-0.074,0.119-0.114
			c0.158,0.302,0.357,0.526,0.548,0.685c0.492,0.446,1.062,0.667,1.681,0.667c0.195,0,0.394-0.024,0.592-0.074
			c0.989-0.223,2.002-0.962,3.137-2.298c0.226-0.248,0.446-0.542,0.669-0.84c-0.05,0.966,0.074,1.681,0.396,2.198
			c0.346,0.544,0.938,0.867,1.631,0.867c1.037,0,1.877-0.323,2.643-0.963c0.102-0.085,0.2-0.176,0.299-0.273
			c0.739,1.2,2.208,1.653,3.284,1.653c1.111,0,2.396-0.394,3.482-1.085c0.32-0.199,0.621-0.42,0.904-0.66
			c0.105,0.357,0.271,0.676,0.503,0.933c0.396,0.443,0.964,0.69,1.631,0.69c0.173,0,0.37-0.025,0.593-0.049
			c0.791-0.173,1.73-0.668,2.743-1.482c0.396-0.346,0.766-0.692,1.109-1.062c0.691,0.073,1.384,0,2.026-0.248
			c0.815-0.322,1.581-0.889,2.198-1.68C129.491,15.045,129.418,14.501,129.047,14.206z M106.64,11.635
			c-0.022,0.124-0.022,0.246,0,0.345l-0.271,0.446c-2.644,4.521-4.149,5.458-4.816,5.606c-0.298,0.05-0.52,0-0.767-0.223
			c-0.101-0.098-0.247-0.271-0.223-0.715c0.01-0.252,0.07-0.539,0.178-0.848c0.179-0.337,0.352-0.695,0.515-1.077
			c0.011-0.029,0.015-0.055,0.022-0.082c0.127-0.224,0.267-0.452,0.422-0.685c0.643-0.965,1.457-1.854,2.148-2.35
			c0.542-0.394,1.136-0.667,1.705-0.767c0.197-0.046,0.344-0.046,0.493-0.046c0.271,0,0.444,0.046,0.544,0.097
			C106.618,11.363,106.69,11.412,106.64,11.635z M113.41,13.463c1.062-1.482,1.927-1.976,2.471-2.149
			c0.197-0.05,0.37-0.074,0.518-0.074c0.224,0,0.396,0.046,0.471,0.097c0.073,0.049,0.196,0.298,0.124,0.643
			c-0.173,0.885-1.42,1.987-4.323,2.704c-0.007-0.01-0.017-0.021-0.023-0.034C112.86,14.272,113.1,13.891,113.41,13.463z
			 M122.72,17.071c-0.986,0.789-1.629,1.035-1.975,1.109c-0.42,0.076-0.521-0.046-0.569-0.074c-0.197-0.246-0.295-0.861-0.073-1.729
			c0.041-0.145,0.096-0.295,0.152-0.442c0.086-0.171,0.167-0.346,0.243-0.522c0.012-0.031,0.02-0.064,0.026-0.098
			c0.181-0.348,0.395-0.693,0.641-1.013c0.297,0.989,1.014,1.853,1.951,2.42C122.994,16.849,122.845,16.947,122.72,17.071z
			 M124.277,15.365c-0.689-0.347-1.258-0.938-1.432-1.631c-0.198-0.641,0-1.233,0.568-1.753c0.421-0.372,0.791-0.568,1.062-0.568
			c0.05,0,0.099,0,0.147,0.025c0.224,0.076,0.42,0.396,0.494,0.815C125.267,13.093,125.019,14.228,124.277,15.365z"/>
		<path fill="#F89B1C" d="M136.848,0.001c-0.494,0.049-0.839,0.467-0.815,0.937c0.125,1.484-0.567,3.954-1.234,6.326
			c-0.814,2.865-1.654,5.83-1.407,7.952c0.048,0.447,0.444,0.768,0.864,0.768h0.123c0.47-0.047,0.814-0.494,0.767-0.987
			c-0.223-1.779,0.567-4.545,1.334-7.264c0.741-2.643,1.458-5.138,1.31-6.917C137.74,0.319,137.318-0.025,136.848,0.001z"/>
		<path fill="#F89B1C" d="M133.81,16.849c-0.791,0.196-1.334,0.839-1.187,1.481c0.148,0.643,0.889,1.012,1.704,0.84
			c0.791-0.173,1.334-0.84,1.187-1.482C135.366,17.071,134.627,16.675,133.81,16.849z"/>
	</g>
</g>
</svg>
