<?xml version="1.0" encoding="utf-8"?>
<!-- Generator: Adobe Illustrator 16.0.0, SVG Export Plug-In . SVG Version: 6.00 Build 0)  -->
<!DOCTYPE svg PUBLIC "-//W3C//DTD SVG 1.1//EN" "http://www.w3.org/Graphics/SVG/1.1/DTD/svg11.dtd">
<svg version="1.1" id="Layer_1" xmlns="http://www.w3.org/2000/svg" xmlns:xlink="http://www.w3.org/1999/xlink" x="0px" y="0px"
	 width="114.178px" height="101.418px" viewBox="0 0 114.178 101.418" enable-background="new 0 0 114.178 101.418"
	 xml:space="preserve">
<g>
	<path fill="#0035CD" d="M93.597,61.92h-6.219v-8.865c2.557-0.474,4.5-2.716,4.5-5.406c0-0.553-0.447-1-1-1s-1,0.447-1,1
		c0,1.58-1.06,2.903-2.5,3.336v-6.932c2.557-0.473,4.5-2.714,4.5-5.404c0-0.553-0.447-1-1-1s-1,0.447-1,1
		c0,1.58-1.06,2.903-2.5,3.337v-6.933c2.557-0.473,4.5-2.714,4.5-5.404c0-0.553-0.447-1-1-1s-1,0.447-1,1
		c0,1.58-1.06,2.903-2.5,3.337v-7.837c0-0.553-0.447-1-1-1s-1,0.447-1,1v7.837c-1.439-0.434-2.5-1.757-2.5-3.337
		c0-0.553-0.447-1-1-1s-1,0.447-1,1c0,2.69,1.944,4.932,4.5,5.404v6.933c-1.439-0.434-2.5-1.757-2.5-3.337c0-0.553-0.447-1-1-1
		s-1,0.447-1,1c0,2.69,1.944,4.932,4.5,5.404v6.932c-1.439-0.434-2.5-1.756-2.5-3.336c0-0.553-0.447-1-1-1s-1,0.447-1,1
		c0,2.69,1.944,4.932,4.5,5.406v8.865h-23.83v-2.749h10c0.266,0,0.52-0.104,0.707-0.293l4.5-4.5c0.391-0.392,0.391-1.022,0-1.414
		l-4.5-4.5c-0.188-0.188-0.441-0.293-0.707-0.293h-10v-2.5h12c0.553,0,1-0.447,1-1v-9c0-0.553-0.447-1-1-1h-12v-3.5
		c0-0.075-0.027-0.143-0.043-0.213h5.006c0.266,0,0.52-0.105,0.707-0.293l3.287-3.287c0.391-0.391,0.391-1.023,0-1.414l-3.287-3.287
		c-0.188-0.188-0.441-0.293-0.707-0.293h-5.006c0.016-0.07,0.043-0.138,0.043-0.213v-9c0-0.347-0.18-0.668-0.476-0.851
		c-0.295-0.184-0.661-0.198-0.973-0.044l-9,4.5c-0.339,0.17-0.553,0.516-0.553,0.895v4.5c0,0.075,0.027,0.143,0.043,0.213h-3.793
		c-0.553,0-1,0.447-1,1v6.574c0,0.553,0.447,1,1,1h3.793c-0.016,0.07-0.043,0.138-0.043,0.213v3.5h-11.5
		c-0.267,0-0.521,0.105-0.707,0.293l-4.5,4.5c-0.391,0.391-0.391,1.023,0,1.414l4.5,4.5c0.188,0.188,0.44,0.293,0.707,0.293h11.5
		v2.5h-7c-0.553,0-1,0.447-1,1v9c0,0.554,0.447,1,1,1h7v2.75H35.666l-3.627-14.507c-0.111-0.445-0.512-0.758-0.971-0.758
		s-0.857,0.312-0.97,0.758l-3.627,14.507h-5.915l-1.697,1.604V53.084c3.803-0.493,6.75-3.744,6.75-7.678
		c0-4.273-3.477-7.75-7.75-7.75c-4.272,0-7.75,3.477-7.75,7.75c0,3.934,2.948,7.185,6.75,7.678v12.333L0.023,81.335l0.751,0.752
		c0.024,0.022,0.044,0.05,0.071,0.069l17.79,17.791l18.809-5.405l20.269,6.823c0.104,0.035,0.211,0.053,0.317,0.053
		c0.111,0,0.224-0.02,0.33-0.057l19-6.641l18.183,5.227l18.612-18.612L93.597,61.92z M52.549,22.17v-3.882l7-3.5v7.382
		c0,0.075,0.027,0.143,0.043,0.213h-7.085C52.521,22.313,52.549,22.246,52.549,22.17z M47.799,28.958v-4.574h18.298l2.287,2.287
		l-2.287,2.287H47.799z M52.506,30.958h7.085c-0.016,0.07-0.043,0.138-0.043,0.213v3.5h-7v-3.5
		C52.549,31.095,52.521,31.028,52.506,30.958z M39.463,43.67l-3.5-3.5l3.5-3.5h33.085v7H39.463z M59.548,45.67v2.5h-7v-2.5H59.548z
		 M44.549,57.171v-7h26.585l3.5,3.5l-3.5,3.5H44.549z M59.548,59.171v12.901h-7V59.171H59.548z M31.069,51.779l3.22,12.877H27.85
		L31.069,51.779z M21.352,63.921h4.62l-0.373,1.493c-0.075,0.299-0.008,0.615,0.182,0.857s0.48,0.385,0.788,0.385h3.5v9.5H18.86
		v-9.879L21.352,63.921z M12.11,45.406c0-3.171,2.579-5.75,5.75-5.75s5.75,2.579,5.75,5.75c0,3.171-2.579,5.75-5.75,5.75
		S12.11,48.577,12.11,45.406z M16.86,68.169v7.987h-4c-0.553,0-1,0.447-1,1s0.447,1,1,1h24c0.554,0,1-0.447,1-1s-0.446-1-1-1h-4.791
		v-9.5h3.5c0.309,0,0.6-0.143,0.788-0.385c0.189-0.242,0.257-0.56,0.183-0.857l-0.373-1.493h14.383v8.151h-2.5v-5.901
		c0-0.553-0.447-1-1-1s-1,0.447-1,1v5.901h-3.5c-0.553,0-1,0.447-1,1c0,0.554,0.447,1,1,1h27c0.553,0,1-0.446,1-1
		c0-0.553-0.447-1-1-1h-3.5v-3.401c0-0.553-0.447-1-1-1s-1,0.447-1,1v3.401h-2.5V63.92h20.979h2h0.853v9.729h-4.5
		c-0.553,0-1,0.447-1,1c0,0.554,0.447,1,1,1h5.5h4.5c0.553,0,1-0.446,1-1c0-0.553-0.447-1-1-1h-3.5V63.92h5.424l17.42,16.451H3.955
		L16.86,68.169z M19.216,97.7L5.205,83.688l28.904,9.731L19.216,97.7z M58.025,99.359L7.562,82.371h99.082L58.025,99.359z
		 M94.962,97.7l-14.334-4.119l28.365-9.912L94.962,97.7z"/>
	<path fill="#0035CD" d="M62.757,90.725l-2.881-0.509l2.533-1.462c0.479-0.275,0.643-0.889,0.364-1.365
		c-0.274-0.479-0.889-0.645-1.364-0.367l-2.531,1.463l1-2.748c0.188-0.521-0.08-1.094-0.601-1.281
		c-0.516-0.188-1.092,0.078-1.28,0.598l-1,2.748l-1-2.748c-0.189-0.52-0.763-0.787-1.282-0.598c-0.52,0.188-0.786,0.762-0.597,1.281
		l1,2.748l-2.533-1.463c-0.48-0.276-1.09-0.112-1.367,0.367c-0.275,0.479-0.111,1.09,0.367,1.364l2.532,1.463l-2.882,0.509
		c-0.544,0.096-0.906,0.612-0.812,1.157c0.086,0.483,0.508,0.826,0.984,0.826c0.057,0,0.114-0.005,0.174-0.017l2.882-0.508
		l-1.881,2.241c-0.354,0.423-0.3,1.054,0.123,1.409c0.188,0.156,0.415,0.234,0.643,0.234c0.285,0,0.569-0.123,0.768-0.357
		l1.881-2.24v2.924c0,0.553,0.446,1,1,1c0.552,0,1-0.447,1-1v-2.924l1.881,2.24c0.197,0.236,0.479,0.357,0.766,0.357
		c0.228,0,0.455-0.076,0.644-0.234c0.424-0.354,0.479-0.984,0.123-1.408l-1.88-2.24l2.88,0.508c0.061,0.011,0.116,0.016,0.176,0.016
		c0.477,0,0.897-0.341,0.983-0.826C63.665,91.339,63.302,90.82,62.757,90.725z"/>
</g>
</svg>
