<?xml version="1.0" encoding="utf-8"?>
<!-- Generator: Adobe Illustrator 16.0.0, SVG Export Plug-In . SVG Version: 6.00 Build 0)  -->
<!DOCTYPE svg PUBLIC "-//W3C//DTD SVG 1.1//EN" "http://www.w3.org/Graphics/SVG/1.1/DTD/svg11.dtd">
<svg version="1.1" id="Layer_1" xmlns="http://www.w3.org/2000/svg" xmlns:xlink="http://www.w3.org/1999/xlink" x="0px" y="0px"
	 width="114.132px" height="85.845px" viewBox="0 0 114.132 85.845" enable-background="new 0 0 114.132 85.845"
	 xml:space="preserve">
<path d="M114.131,65.762l-9.795-9.25V44.404c2.556-0.473,4.5-2.714,4.5-5.404c0-0.553-0.447-1-1-1s-1,0.447-1,1
	c0,1.58-1.06,2.903-2.5,3.337v-6.933c2.556-0.473,4.5-2.714,4.5-5.404c0-0.553-0.447-1-1-1s-1,0.447-1,1
	c0,1.58-1.06,2.903-2.5,3.337v-6.933c2.556-0.473,4.5-2.714,4.5-5.404c0-0.553-0.447-1-1-1s-1,0.447-1,1
	c0,1.58-1.06,2.903-2.5,3.337V16.5c0-0.553-0.447-1-1-1s-1,0.447-1,1v7.837c-1.44-0.434-2.5-1.757-2.5-3.337c0-0.553-0.447-1-1-1
	s-1,0.447-1,1c0,2.69,1.944,4.932,4.5,5.404v6.933c-1.44-0.434-2.5-1.757-2.5-3.337c0-0.553-0.447-1-1-1s-1,0.447-1,1
	c0,2.69,1.944,4.932,4.5,5.404v6.933c-1.44-0.434-2.5-1.757-2.5-3.337c0-0.553-0.447-1-1-1s-1,0.447-1,1
	c0,2.69,1.944,4.932,4.5,5.404v10.219L87.568,40.677c0.885-0.976,1.435-2.259,1.435-3.677c0-2.69-1.944-4.932-4.5-5.404v-2.646
	c5.046-0.504,9-4.773,9-9.949c0-5.514-4.486-10-10-10s-10,4.486-10,10c0,5.176,3.954,9.445,9,9.949v2.646
	c-1.129,0.209-2.124,0.776-2.899,1.561l-5.078-4.796V25.5c0-0.553-0.447-1-1-1h-14V19c0-0.075-0.027-0.143-0.043-0.213h5.006
	c0.266,0,0.52-0.105,0.707-0.293l3.287-3.287c0.391-0.391,0.391-1.023,0-1.414l-3.287-3.287c-0.188-0.188-0.441-0.293-0.707-0.293
	h-5.006c0.016-0.07,0.043-0.138,0.043-0.213V1c0-0.347-0.18-0.668-0.475-0.851c-0.295-0.184-0.663-0.198-0.973-0.044l-9,4.5
	c-0.339,0.17-0.553,0.516-0.553,0.895V10c0,0.075,0.027,0.143,0.043,0.213h-3.793c-0.553,0-1,0.447-1,1v6.574c0,0.553,0.447,1,1,1
	h3.793c-0.016,0.07-0.043,0.138-0.043,0.213v5.5h-9.5c-0.266,0-0.52,0.105-0.707,0.293l-4.5,4.5c-0.391,0.391-0.391,1.023,0,1.414
	l1.593,1.593l-3.951,3.734l-0.444-1.776c-0.111-0.445-0.511-0.758-0.97-0.758s-0.858,0.312-0.97,0.758l-1.334,5.338l-0.031-0.033
	l-9.874,9.335v-8.971c3.802-0.493,6.75-3.744,6.75-7.678c0-4.273-3.477-7.75-7.75-7.75s-7.75,3.477-7.75,7.75
	c0,3.934,2.948,7.185,6.75,7.678v10.861L0,65.762l0.75,0.75c0.025,0.023,0.045,0.051,0.073,0.072l17.79,17.791l18.809-5.406
	l20.269,6.824c0.104,0.034,0.211,0.052,0.319,0.052c0.111,0,0.223-0.019,0.33-0.056l19-6.641l18.181,5.227L114.131,65.762z
	 M11.086,32.25c0-3.171,2.579-5.75,5.75-5.75s5.75,2.579,5.75,5.75S20.007,38,16.836,38S11.086,35.421,11.086,32.25z
	 M110.199,64.798h-5.862v-5.536L110.199,64.798z M58.525,40h8.586l3.5,3.5l-3.5,3.5h-8.586h-9h-7v-7h7H58.525z M50.525,38v-2.5h7V38
	H50.525z M50.525,49h7v15.798h-7V49z M102.336,64.798H84.502V42.404c0.514-0.095,0.992-0.278,1.446-0.505l16.388,15.475V64.798z
	 M75.502,19c0-4.411,3.589-8,8-8s8,3.589,8,8s-3.589,8-8,8S75.502,23.411,75.502,19z M83.502,33.5c1.93,0,3.5,1.57,3.5,3.5
	s-1.57,3.5-3.5,3.5s-3.5-1.57-3.5-3.5S81.573,33.5,83.502,33.5z M78.466,34.834c-0.288,0.667-0.464,1.394-0.464,2.166
	c0,2.69,1.944,4.932,4.5,5.404v22.394H64.025V61.5c0-0.553-0.447-1-1-1s-1,0.447-1,1v3.298h-2.5V49h8
	c0.266,0,0.52-0.105,0.707-0.293l4.5-4.5c0.391-0.391,0.391-1.023,0-1.414l-4.5-4.5C68.044,38.105,67.791,38,67.525,38h-8v-2.5h14
	c0.553,0,1-0.447,1-1v-3.388L78.466,34.834z M50.525,10V6.118l7-3.5V10c0,0.075,0.027,0.143,0.043,0.213h-7.086
	C50.498,10.143,50.525,10.075,50.525,10z M45.775,16.787v-4.574h18.299l2.287,2.287l-2.287,2.287H45.775z M50.482,18.787h7.086
	c-0.016,0.07-0.043,0.138-0.043,0.213v5.5h-7V19C50.525,18.925,50.498,18.857,50.482,18.787z M39.439,26.5h10.086h9h14v7h-14h-9
	H39.439l-3.5-3.5L39.439,26.5z M36.826,33.715l1.492,1.492c0.188,0.188,0.441,0.293,0.707,0.293h9.5V38h-7c-0.553,0-1,0.447-1,1v9
	c0,0.553,0.447,1,1,1h7v15.798h-2.5V57c0-0.553-0.447-1-1-1s-1,0.447-1,1v7.798H31.045V53.5h3.5c0.308,0,0.599-0.142,0.788-0.385
	c0.189-0.242,0.257-0.559,0.182-0.857L32.016,38.26L36.826,33.715z M30.045,38.623L33.264,51.5h-6.438L30.045,38.623z M26.86,43.119
	l-2.285,9.139c-0.075,0.299-0.008,0.615,0.182,0.857c0.189,0.243,0.48,0.385,0.788,0.385h3.5v11.298H17.836V51.65L26.86,43.119z
	 M15.836,64.798H3.931l11.906-11.257V64.798z M19.193,82.127L5.18,68.114l28.906,9.731L19.193,82.127z M58.002,83.787L8.139,67
	h32.386h4.5h4.5h9h4.5h4.5h35.812h2.705L58.002,83.787z M80.605,78.008l28.365-9.912L94.938,82.127L80.605,78.008z"/>
<path d="M63.501,75.15l-2.881-0.508l2.532-1.462c0.479-0.276,0.643-0.888,0.366-1.366s-0.89-0.644-1.366-0.366l-2.531,1.462l1-2.748
	c0.188-0.52-0.08-1.093-0.599-1.281c-0.517-0.188-1.093,0.078-1.282,0.598l-1,2.748l-1-2.749c-0.188-0.519-0.762-0.786-1.281-0.597
	c-0.52,0.188-0.787,0.762-0.598,1.281l1,2.748l-2.533-1.463c-0.48-0.276-1.09-0.112-1.366,0.367
	c-0.276,0.479-0.112,1.09,0.366,1.365l2.533,1.463l-2.881,0.508c-0.545,0.096-0.908,0.613-0.812,1.158
	c0.086,0.484,0.508,0.826,0.984,0.826c0.058,0,0.115-0.005,0.174-0.016l2.883-0.508l-1.881,2.241
	c-0.355,0.423-0.301,1.054,0.123,1.409c0.188,0.157,0.415,0.234,0.643,0.234c0.285,0,0.568-0.122,0.766-0.357l1.881-2.24v2.924
	c0,0.553,0.447,1,1,1s1-0.447,1-1v-2.924l1.881,2.24c0.197,0.236,0.48,0.357,0.766,0.357c0.228,0,0.455-0.076,0.643-0.234
	c0.424-0.354,0.479-0.985,0.123-1.408l-1.879-2.241l2.88,0.509c0.06,0.01,0.117,0.015,0.175,0.015c0.477,0,0.898-0.341,0.984-0.826
	C64.409,75.766,64.045,75.247,63.501,75.15z"/>
</svg>
